<?xml version="1.0" standalone="no"?>
<!DOCTYPE svg PUBLIC "-//W3C//DTD SVG 1.1//EN" "http://www.w3.org/Graphics/SVG/1.1/DTD/svg11.dtd" >
<!--
2013-9-30: Created.
-->
<svg>
<metadata>
Created by iconfont
</metadata>
<defs>

<font id="iconfont" horiz-adv-x="1024" >
  <font-face
    font-family="iconfont"
    font-weight="500"
    font-stretch="normal"
    units-per-em="1024"
    ascent="896"
    descent="-128"
  />
    <missing-glyph />
    
    <glyph glyph-name="gwc" unicode="&#59078;" d="M358.957 321.75H842.22l53.327 316.413h-590.38l-21.71 127.701H125.664v-61.398h105.953l86.98-511.653h576.46V254.21H370.439l-11.481 67.538z m463.977 255.014l-32.631-193.616H348.52l-32.915 193.616h507.33zM417.557 139.6c-53.04 0-96.191-43.15-96.191-96.19s43.15-96.19 96.19-96.19 96.191 43.15 96.191 96.19-43.152 96.19-96.19 96.19z m0-130.982c-19.185 0-34.793 15.607-34.793 34.792s15.608 34.792 34.793 34.792 34.792-15.607 34.792-34.792-15.609-34.792-34.792-34.792zM797.714 139.6c-53.04 0-96.191-43.15-96.191-96.19s43.15-96.19 96.19-96.19 96.192 43.15 96.192 96.19-43.151 96.19-96.191 96.19z m0-130.982c-19.185 0-34.793 15.607-34.793 34.792s15.608 34.792 34.793 34.792 34.792-15.607 34.792-34.792-15.607-34.792-34.792-34.792z"  horiz-adv-x="1024" />

    
    <glyph glyph-name="fenxiang" unicode="&#58888;" d="M853.578 234.285c-65.68 0-119.381-35.158-144.39-89.736L391.713 279.59c18.518 28.693 28.692 63.85 28.692 101.764 0 15.711-1.854 31.448-5.563 46.258l202.703 157.269c26.864-20.348 61.12-32.376 99.059-32.376 91.641 0 160.128 68.46 160.128 159.097 0 90.663-68.512 159.124-160.128 159.124-91.641 0-159.2-68.46-159.2-159.124 0-23.129 4.636-44.404 12.028-62.897L382.44 505.32c-37.012 55.505-98.106 94.372-167.52 94.372A204.97 204.97 0 0 1 9.438 394.309a204.97 204.97 0 0 1 205.485-205.356c42.575 0 82.369 11.076 114.77 31.423l364.711-155.388c4.636-86.027 71.268-149.851 159.175-149.851 91.667 0 159.226 68.435 159.226 159.097 0 90.663-68.512 160.05-159.2 160.05z"  horiz-adv-x="1024" />

    
    <glyph glyph-name="gouwudai" unicode="&#58892;" d="M829.7-58H186.5c-80.4 0-143.9 68.2-138.2 148.3l28.1 396.1c5.1 72.5 65.5 128.7 138.2 128.7h587c72.7 0 133-56.2 138.2-128.7l28.1-396.1C973.5 10.2 910-58 829.7-58zM880.9 537.3c-1.7 24.1-9.6 46.3-21.9 65.3-17.6 8-37 12.6-57.4 12.6h-587c-72.7 0-133-56.2-138.2-128.7L48.3 90.3c-2.2-31.4 6.2-60.8 22.1-85.1 17.4-7.9 36.8-12.4 57.3-12.4h643.2c80.4 0 143.9 68.2 138.2 148.3l-28.2 396.2zM909 141.1l-28.1 396.1c-0.5 6.5-1.5 12.9-2.8 19.1-5.8 0.8-11.7 1.3-17.7 1.3h-587c-72.7 0-133-56.2-138.2-128.7l-28.1-396.1c-0.9-13.4 0.2-26.4 2.8-38.8 5.8-0.7 11.7-1.2 17.7-1.2h643.2c80.4 0 143.9 68.2 138.2 148.3zM358.4 615.2c6.9 76.9 71.5 137.2 150.2 137.2s143.3-60.3 150.2-137.2h79.5C731.1 736 631.1 831.8 508.6 831.8 386 831.8 286.1 736 278.9 615.2h79.5zM335.2 615.2c8.4 68.1 62 122 130 130.8 13.7 4.1 28.3 6.4 43.4 6.4 78.7 0 143.3-60.3 150.2-137.2h55C704.2 733.6 605.5 826.8 484.7 826.8c-12.1 0-23.8-1.2-35.4-3-94.1-25.1-164.4-108.1-170.4-208.6h56.3zM302.8 461.8m-49.8 0a49.8 49.8 0 1 1 99.6 0 49.8 49.8 0 1 1-99.6 0ZM701.2 461.8m-49.8 0a49.8 49.8 0 1 1 99.6 0 49.8 49.8 0 1 1-99.6 0Z"  horiz-adv-x="1024" />

    
    <glyph glyph-name="shuiguo" unicode="&#58893;" d="M482.2 832.1h-43.8c-17.7 0-32-14.3-32-32s14.3-32 32-32h24.8c10.5 0 19-8.5 19-19V627h64.1V784.4c0 26.4-21.4 47.7-47.7 47.7h-16.4zM606.4-52.7l-97.2 10.3c-6.6 0.7-13.3 0.7-20-0.1l-73-8.2c-159-17.9-302.3 96.9-319.4 256.1l-5.3 49.2C87.8 288.9 86 323.5 86 358v93.6C86 578 188.4 680.4 314.8 680.4L496 661.1c9.9-1.1 19.9-1.1 29.8 0L707 680.4c126.4 0 228.8-102.5 228.8-228.8v-81.9c0-33.4-1.7-66.8-5.2-100l-6.8-65.1c-16.3-158.9-158.6-274.1-317.4-257.3zM669.3 688.2C630 648.9 563.9 648 537.8 649.4c-6.5 0.3-11.7 5.5-12 12-1.4 26.1-0.5 92.2 38.8 131.5C603.8 832.3 669.9 833.2 696 831.8c6.5-0.3 11.7-5.5 12-12 1.5-26.2 0.6-92.2-38.7-131.6zM656.1 700.8c39.1 39.1 40.2 104.5 38.8 131-26.8 1.3-91.6 0-130.4-38.8-39.1-39.1-40.2-104.5-38.8-131 26.8-1.3 91.6 0 130.4 38.8zM707.1 680.4l-181.2-19.3c-9.9-1.1-19.9-1.1-29.8 0l-181.2 19.3C188.4 680.4 86 578 86 451.6V358c0-34.5 1.9-69.1 5.5-103.4l5.3-49.2c6.2-57.8 29.2-109.6 63.4-151.5 55.7-39.3 125.3-59.4 198.5-51.1l73 8.2c6.6 0.7 13.3 0.8 20 0.1l97.2-10.3C707.7-16.1 850 99.2 866.5 258l6.8 65.1c3.5 33.2 5.2 66.6 5.2 100V505c0 52.1-17.6 100-47 138.5-35.9 23.3-78.5 36.9-124.4 36.9zM866.5 258l6.8 65.1c3.5 33.2 5.2 66.6 5.2 100V505c0 38.8-9.8 75.3-26.9 107.3-25 9.4-52 14.6-80.3 14.6l-181.2-19.3c-9.9-1.1-19.9-1.1-29.8 0L378.9 627c-126.4 0-228.8-102.5-228.8-228.8v-93.6c0-34.5 1.9-69.1 5.5-103.4l5.3-49.2c4.9-45.6 20.4-87.5 43.5-123.7 46.5-21.9 99.4-31.6 154.3-25.4l73 8.2c6.6 0.7 13.3 0.8 20 0.1l97.2-10.3c158.8-17 301.1 98.3 317.6 257.1z"  horiz-adv-x="1024" />

    
    <glyph glyph-name="vip" unicode="&#58894;" d="M235.3 755.4h551.8c38.8 0 73.7-23.5 88.4-59.4l70.3-171.9c13.9-33.9 7.1-72.7-17.3-99.9L588.2 44.4c-37.3-41.6-102.1-42.5-140.5-1.9L88 422.2C61.3 450.4 54.3 492 70.3 527.3l78 172c15.5 34.2 49.5 56.1 87 56.1zM861 547.3l-70.3 171.9c-5.9 14.3-15 26.5-26.3 36.2H235.3c-37.5 0-71.5-21.9-87-56.1l-78-172c-16-35.4-9.1-76.9 17.7-105.1l359.7-379.7c1.5-1.6 3.1-3 4.7-4.5 19 4.1 36.9 14 50.9 29.6l340.4 379.9c24.4 27.2 31.2 66 17.3 99.8zM807.9 677H302.1c-37.5 0-71.5-21.9-87-56.1l-78-172c-11.5-25.5-11-54.1 0.1-78.6l310.5-327.8c1.5-1.6 3.1-3 4.7-4.5 19 4.1 36.9 14 50.9 29.6l340.4 379.9c24.4 27.3 31.1 66.1 17.3 99.9L807.9 677zM669.6 457.1H336.8c-2.9 0-5.2 2.3-5.2 5.2v89.3c0 2.9 2.3 5.2 5.2 5.2h332.7c2.9 0 5.2-2.3 5.2-5.2v-89.3c0.1-2.9-2.2-5.2-5.1-5.2z"  horiz-adv-x="1024" />

    
    <glyph glyph-name="zhibo" unicode="&#58895;" d="M924.3 533.1l-81-61.1v91.3c0 53.3-43.2 96.5-96.5 96.5H152c-53.3 0-96.5-43.2-96.5-96.5v-364.1c0-53.3 43.2-96.5 96.5-96.5h594.8c53.3 0 96.5 43.2 96.5 96.5v91.4l81-61.1c16.2-12.2 39.3-0.7 39.3 19.6V513.5c0 20.3-23.1 31.8-39.3 19.6zM924.3 533.1l-81-61.1v91.3c0 53.3-43.2 96.5-96.5 96.5H152c-53.3 0-96.5-43.2-96.5-96.5v-364.1c0-53.3 43.2-96.5 96.5-96.5h594.8c53.3 0 96.5 43.2 96.5 96.5v91.4l81-61.1c16.2-12.2 39.3-0.7 39.3 19.6V513.5c0 20.3-23.1 31.8-39.3 19.6zM746.8 659.9H152c-53.3 0-96.5-43.2-96.5-96.5v-364.1c0-24.7 9.4-47.2 24.7-64.3L816 630.5c-17.5 18.1-42 29.4-69.2 29.4zM843.3 563.4s2 39-27.2 67.1C810.7 628.7 783 619 783 619H188.2c-53.3 0-96.5-43.2-96.5-96.5v-364.1c0-4.9 0.4-9.7 1.1-14.4 2.6-0.2 5.3-0.3 8-0.3h594.8c53.3 0 96.5 43.2 96.5 96.5v91.3l81-61.1c16.2-12.2 39.3-0.7 39.3 19.6V524.2L843.2 472v91.4zM587 389.7L363.4 518.8c-2 1.1-4.5-0.3-4.5-2.6V258c0-2.3 2.5-3.7 4.5-2.6L587 384.5c2 1.2 2 4 0 5.2z"  horiz-adv-x="1024" />

    
    <glyph glyph-name="fenlei" unicode="&#58896;" d="M474 405.5H63.9c-4.4 0-8 3.6-8 8V823.7c0 4.4 3.6 8 8 8H474c4.4 0 8-3.6 8-8v-410.2c0.1-4.4-3.5-8-8-8zM142.5 831.8c-47.8 0-86.6-38.8-86.6-86.6v-253c0-14.4 3.6-28 9.8-39.9 13.7-9.2 30.2-14.5 48-14.5h253c47.8 0 86.6 38.8 86.6 86.6v253c0 14.4-3.6 28-9.8 39.9-13.7 9.2-30.2 14.5-48 14.5h-253zM171.3 803.8c-47.8 0-86.6-38.8-86.6-86.6v-253c0-7.8 1.1-15.3 3.1-22.5 8.2-2.6 16.9-4 25.9-4h253c47.8 0 86.6 38.8 86.6 86.6v253c0 7.8-1.1 15.3-3.1 22.5-8.2 2.6-16.9 4-25.9 4h-253zM474-73.7H63.9c-4.4 0-8 3.6-8 8V344.5c0 4.4 3.6 8 8 8H474c4.4 0 8-3.6 8-8v-410.2c0.1-4.4-3.5-8-8-8zM142.5 352.5c-47.8 0-86.6-38.8-86.6-86.6v-253c0-14.4 3.6-28 9.8-39.9 13.7-9.2 30.2-14.5 48-14.5h253c47.8 0 86.6 38.8 86.6 86.6V298c0 14.4-3.6 28-9.8 39.9-13.7 9.2-30.2 14.5-48 14.5h-253zM171.3 324.5c-47.8 0-86.6-38.8-86.6-86.6v-253c0-7.8 1.1-15.3 3.1-22.5 8.2-2.6 16.9-4 25.9-4h253c47.8 0 86.6 38.8 86.6 86.6V298c0 7.8-1.1 15.3-3.1 22.5-8.2 2.6-16.9 4-25.9 4h-253zM960 405.5H549.8c-4.4 0-8 3.6-8 8V823.7c0 4.4 3.6 8 8 8H960c4.4 0 8-3.6 8-8v-410.2c0-4.4-3.6-8-8-8zM628.4 831.8c-47.8 0-86.6-38.8-86.6-86.6v-253c0-14.4 3.6-28 9.8-39.9 13.7-9.2 30.2-14.5 48-14.5h253c47.8 0 86.6 38.8 86.6 86.6v253c0 14.4-3.6 28-9.8 39.9-13.7 9.2-30.2 14.5-48 14.5h-253zM657.3 803.8c-47.8 0-86.6-38.8-86.6-86.6v-253c0-7.8 1.1-15.3 3.1-22.5 8.2-2.6 16.9-4 25.9-4h253c47.8 0 86.6 38.8 86.6 86.6v253c0 7.8-1.1 15.3-3.1 22.5-8.2 2.6-16.9 4-25.9 4h-253zM871.1 65.9l-42.6-42.6c-1.2-1.2-1.2-3.2 0-4.4l106.7-106.7c1.2-1.2 3.2-1.2 4.4 0l42.6 42.6c1.2 1.2 1.2 3.2 0 4.4L875.4 65.9c-1.2 1.2-3.1 1.2-4.3 0zM847 41.2c-10-13-9.2-31.7 2.7-43.7l64-64c11.9-11.9 30.6-12.8 43.7-2.7 10 13 9.2 31.7-2.7 43.7l-64 64c-11.9 12-30.6 12.8-43.7 2.7zM596.445638 21.755631a195.2 195.2 0 1 1 276.049669 276.059305 195.2 195.2 0 1 1-276.049669-276.059305ZM834 293c-39.3 39.3-91.3 58.2-142.8 56.9-34.7-7.9-67.7-25.1-94.7-52.1-76.2-76.2-76.2-199.8 0-276.1 39.3-39.3 91.3-58.2 142.8-56.9 34.7 7.9 67.7 25.1 94.7 52.1 76.3 76.2 76.3 199.8 0 276.1zM629.1 302c-76.2-76.2-76.2-199.8 0-276.1 35.2-35.2 80.6-53.9 126.7-56.6 28.6 9.1 55.5 24.8 78.2 47.5 76.2 76.2 76.2 199.8 0 276.1-35.2 35.2-80.6 53.9-126.7 56.6-28.6-9.1-55.5-24.8-78.2-47.5z"  horiz-adv-x="1024" />

    
    <glyph glyph-name="naozhong" unicode="&#58897;" d="M231.7-67.6l-34.8 34.8c-1.1 1.1-1.1 3 0 4.1l169.5 169.5c1.1 1.1 3 1.1 4.1 0l34.8-34.8c1.1-1.1 1.1-3 0-4.1L235.8-67.6c-1.1-1.1-3-1.1-4.1 0zM382.3 128c-10.2 6.3-23.7 5.1-32.6-3.7L213.5-12c-8.8-8.8-10.1-22.4-3.7-32.6 10.2-6.3 23.7-5.1 32.6 3.7l136.3 136.3c8.7 8.9 9.9 22.4 3.6 32.6zM651.4 140.9l-34.8-34.8c-1.1-1.1-1.1-3 0-4.1l169.5-169.5c1.1-1.1 3-1.1 4.1 0l34.8 34.8c1.1 1.1 1.1 3 0 4.1L655.6 140.9c-1.2 1.1-3 1.1-4.2 0zM802.1-54.7c-10.2-6.3-23.7-5.1-32.6 3.7L633.3 85.3c-8.8 8.8-10.1 22.4-3.7 32.6 10.2 6.3 23.7 5.1 32.6-3.7l136.3-136.3c8.7-8.9 9.9-22.4 3.6-32.6zM511 360.3m-350.7 0a350.7 350.7 0 1 1 701.4 0 350.7 350.7 0 1 1-701.4 0ZM814.4 387.3c0 120.6-60.9 227-153.7 290.1C615.3 698.9 564.6 711 511 711c-193.7 0-350.7-157-350.7-350.7 0-120.6 60.9-227 153.7-290.1 45.4-21.5 96.2-33.5 149.7-33.5 193.7-0.1 350.7 156.9 350.7 350.6zM682.6 661.1C643.9 675.8 602 684 558.2 684c-193.7 0-350.7-157-350.7-350.7 0-110.8 51.5-209.5 131.8-273.8 38.7-14.7 80.6-22.9 124.4-22.9 193.7 0 350.7 157 350.7 350.7 0 110.8-51.5 209.5-131.8 273.8zM535.5 346.8h-49c-1.7 0-3 1.4-3 3V610.2c0 1.7 1.4 3 3 3h49c1.7 0 3-1.4 3-3v-260.3c0-1.7-1.3-3.1-3-3.1zM483.4 349.3v49c0 1.7 1.4 3 3 3h174.3c1.7 0 3-1.4 3-3v-49c0-1.7-1.4-3-3-3H486.5c-1.7 0-3.1 1.3-3.1 3zM322.8 785.9c-50 50-131.1 50-181.2 0-50-50-50-131.1 0-181.2 8.2-8.2 21.4-8.2 29.6 0l151.5 151.5c8.3 8.2 8.3 21.5 0.1 29.7zM298.8 761.8c-45.9 45.9-118 49.6-168.3 11.1-38.4-50.2-34.8-122.3 11.1-168.3 8.2-8.2 21.4-8.2 29.6 0l127.5 127.5c8.2 8.3 8.2 21.6 0.1 29.7zM699.2 785.9c50 50 131.1 50 181.2 0 50-50 50-131.1 0-181.2-8.2-8.2-21.4-8.2-29.6 0L699.2 756.2c-8.2 8.2-8.2 21.5 0 29.7zM723.2 761.8c45.9 45.9 118 49.6 168.3 11.1 38.4-50.2 34.8-122.3-11.1-168.3-8.2-8.2-21.4-8.2-29.6 0L723.2 732.2c-8.2 8.2-8.2 21.5 0 29.6z"  horiz-adv-x="1024" />

    
    <glyph glyph-name="shenghuojiaofei" unicode="&#58898;" d="M821.8 252.3c0-170-137.8-307.9-307.9-307.9S206 82.2 206 252.3C206 392.1 414.3 705.9 488.2 813c12.4 18 38.9 18 51.4 0 73.9-107.1 282.2-420.9 282.2-560.7zM747.8 279.2C747.8 407.7 572 683 486.1 809.8 410.4 700.1 206 390.8 206 252.3c0-119 67.6-222.2 166.5-273.5 21.7-4.9 44.3-7.5 67.5-7.5 170 0 307.8 137.8 307.8 307.9zM256 207.7c0-79.3 30-151.6 79.3-206.1 11.8-8.4 24.2-16 37.1-22.7 21.7-4.9 44.3-7.5 67.5-7.5 170 0 307.9 137.8 307.9 307.9 0 110.9-131 331.2-222 470.9C443.4 629.5 256 340.4 256 207.7zM621.7 234.2l-59.6 11.1c-4.6 0.9-7.8 5-7.5 9.6l8.6 140.8c0.5 7.9-8.6 12.7-14.9 7.8l-146.2-114c-6.3-4.9-3.8-14.9 4-16.4l59.6-11.1c4.6-0.9 7.8-5 7.5-9.6l-8.6-140.8c-0.5-7.9 8.6-12.7 14.9-7.8l146.3 114.1c6.2 4.8 3.7 14.8-4.1 16.3z"  horiz-adv-x="1024" />

    
    <glyph glyph-name="aixinrexian" unicode="&#58899;" d="M758.2 746.3L731 773.5c-37.2 37.2-97.4 37.2-134.5 0-37.2-37.2-37.2-97.4 0-134.5l27.2-27.2L749 486.4c5.1-5.1 13.3-5.1 18.4 0l125.4 125.4L920 639c37.2 37.2 37.2 97.4 0 134.5-37.2 37.2-97.4 37.2-134.5 0l-27.3-27.2zM748.1 505.7l125.4 125.4 27.2 27.2c20.3 20.3 29.5 47.4 27.6 74-2.6 36.7-32.2 66.3-68.9 68.9-26.5 1.9-53.7-7.3-74-27.6l-27.2-27.2-19.3 19.3-7.9 7.9c-37.2 37.2-97.4 37.2-134.5 0-37.2-37.2-37.2-97.4 0-134.5l7.9-7.9 19.3-19.3 106.1-106.1c5-5.2 13.2-5.2 18.3-0.1zM928.5 725.6c-0.1 30.9-25 55.9-55.9 55.9-24.4 0-48.7-9.3-67.3-27.9L778 726.5l-27.2 27.2c-37.2 37.2-97.4 37.2-134.5 0-37.2-37.2-37.2-97.4 0-134.5l27.2-27.2 21.6-21.6 64.6-64.6c5.1-5.1 13.3-5.1 18.4 0l125.4 125.4 27.2 27.2c18.5 18.4 27.8 42.8 27.8 67.2zM547.2 8.9c54.1-54.1 141.8-54.1 195.9 0l125.4 125.4c52.9 52.9 52.9 138.6 0 191.4L801.1 393c-52.9 52.9-138.6 52.9-191.4 0l-117 117c52.9 52.9 52.9 138.6 0 191.4l-67.4 67.4c-52.9 52.9-138.6 52.9-191.4 0L108.6 643.4c-54.1-54.1-54.1-141.8 0-195.9l438.6-438.6zM715.5 393c-15.4 15.4-33.6 26.2-52.9 32.6-19.3-6.4-37.5-17.2-52.9-32.6l-32.6 32.6c-19.4-6.4-37.6-17.2-53-32.6l-117 117c52.9 52.9 52.9 138.6 0 191.4l-67.4 67.4c-15.4 15.4-33.6 26.2-52.9 32.6-19.3-6.4-37.5-17.2-52.9-32.6L108.6 643.4c-54.1-54.1-54.1-141.8 0-195.9l438.6-438.6c16-16 35-27.2 55.2-33.7 20.2 6.5 39.2 17.7 55.2 33.7L783 134.3c52.9 52.9 52.9 138.6 0 191.4L715.5 393zM715.5 393c-3.3 3.3-6.7 6.2-10.2 9-3.5-2.8-6.9-5.7-10.1-8.9l-32.4 32.4c-0.1 0-0.2 0.1-0.3 0.1-19.3-6.4-37.5-17.2-52.9-32.6L577 425.6c-19.4-6.4-37.6-17.2-53-32.6L407 510c52.9 52.9 52.9 138.6 0 191.4l-67.4 67.4c-3.3 3.3-6.7 6.2-10.2 9-3.5-2.8-6.9-5.7-10.1-8.9L194.2 643.5c-54.1-54.1-54.1-141.8 0-195.9L632.7 9c4-4 8.1-7.6 12.4-11 4.3 3.4 8.4 7 12.3 10.9l125.4 125.4c52.9 52.9 52.9 138.6 0 191.4L715.5 393z"  horiz-adv-x="1024" />

    
    <glyph glyph-name="kefu" unicode="&#58900;" d="M514.1 832.1C309.1 832.1 143 666 143 461v-44.5c0-19.6 15.9-35.6 35.6-35.6 19.6 0 35.6 15.9 35.6 35.6v29.2c0 165.7 134.3 299.9 299.9 299.9 165.7 0 299.9-134.3 299.9-299.9v-129.5c0-152.9-114.4-279.1-262.3-297.6-21.5-2.7-37.6-21.1-37.6-42.8 0-26.1 22.9-46.3 48.8-42.9 181.9 23.9 322.3 179.5 322.3 367.9V461c0 205-166.2 371.1-371.1 371.1zM498.1 831.7C300.6 823.4 143 660.6 143 461v-44.5c0-13.9 8-25.9 19.6-31.8 11.6 5.8 19.6 17.9 19.6 31.8v29.2c0 165.7 134.3 299.9 299.9 299.9 5.3 0 10.7-0.2 15.9-0.4 5.3 0.3 10.6 0.4 15.9 0.4 165.7 0 299.9-134.3 299.9-299.9v-129.5c0-152.9-114.4-279.1-262.3-297.6-21.5-2.7-37.6-21.1-37.6-42.8 0-19.2 12.5-35.2 29.4-40.9 175.8 29.2 309.8 181.9 309.8 366V461c0.2 199.6-157.4 362.4-355 370.7zM326.5 221.8H146.3c-1.8 0-3.3 1.5-3.3 3.3V478.6h183.5c5.5 0 10-4.5 10-10v-236.8c0-5.6-4.5-10-10-10zM250 478.6H143v-228.4c0-2.2 0.3-4.4 0.8-6.5 2-0.4 4.1-0.7 6.2-0.7h78.5c47.8 0 86.5 38.7 86.5 86.5v83.8c0 18.6-6 35.9-16 50-13.9 9.6-30.8 15.3-49 15.3zM171 430.6V243h57.4c47.8 0 86.5 38.7 86.5 86.5v83.8c0 3.7-0.2 7.3-0.7 10.9-1.9 14.8-14.1 26.2-28.9 27.5-2.4 0.2-4.9 0.3-7.3 0.3h-85.6c-11.8 0-21.4-9.6-21.4-21.4zM701.7 221.8h180.2c1.8 0 3.3 1.5 3.3 3.3V478.6H701.7c-5.5 0-10-4.5-10-10v-236.8c0-5.6 4.4-10 10-10zM778.2 478.6h107v-228.4c0-2.2-0.3-4.4-0.8-6.5-2-0.4-4.1-0.7-6.2-0.7h-78.5c-47.8 0-86.5 38.7-86.5 86.5v83.8c0 18.6 6 35.9 16 50 13.9 9.6 30.8 15.3 49 15.3zM857.1 430.6V243h-57.4c-47.8 0-86.5 38.7-86.5 86.5v83.8c0 3.7 0.2 7.3 0.7 10.9 1.9 14.8 14.1 26.2 28.9 27.5 2.4 0.2 4.9 0.3 7.3 0.3h85.6c11.8 0 21.4-9.6 21.4-21.4z"  horiz-adv-x="1024" />

    
    <glyph glyph-name="shumadianqi" unicode="&#58901;" d="M700.7 713.8c-5.7 40.5-40.3 70.6-81.2 70.6H404.7c-40.9 0-75.6-30.1-81.2-70.6-5.7-40.5-40.3-70.6-81.2-70.6h-93.7c-45.3 0-82-36.7-82-82v-499.6c0-45.3 36.7-82 82-82h727.1c45.3 0 82 36.7 82 82V561.1c0 45.3-36.7 82-82 82H782c-41 0-75.6 30.2-81.3 70.7zM700.7 713.8c-5.7 40.5-40.3 70.6-81.2 70.6H404.7c-40.9 0-75.6-30.1-81.2-70.6-5.7-40.5-40.3-70.6-81.2-70.6h-93.7c-45.3 0-82-36.7-82-82v-499.6c0-45.3 36.7-82 82-82h727.1c45.3 0 82 36.7 82 82V561.1c0 45.3-36.7 82-82 82H782c-41 0-75.6 30.2-81.3 70.7zM79.6 52h727.1c45.3 0 82 36.7 82 82V633.6c0 2.9-0.1 5.7-0.4 8.4-4.1 0.6-8.3 1.1-12.7 1.1h-93.7c-40.9 0-75.6 30.1-81.2 70.6-5.7 40.5-40.3 70.6-81.2 70.6H404.7c-40.9 0-75.6-30.1-81.2-70.6-5.7-40.5-40.3-70.6-81.2-70.6h-93.7c-45.3 0-82-36.7-82-82v-499.6c0-2.9 0.1-5.7 0.4-8.4 4-0.7 8.3-1.1 12.6-1.1zM888.3 642.1c-4.1 0.6-8.3 1.1-12.7 1.1h-93.7c-40.9 0-75.6 30.1-81.2 70.6-1.1 8.2-3.7 15.7-7 22.9-10.7 2.7-23 5.2-40.2 5.2H472.8c-40.9 0-75.6-30.1-81.2-70.6-5.7-40.5-40.3-70.6-81.2-70.6h-93.7c-45.3 0-82-36.7-82-82V52h672.1c45.3 0 82 36.7 82 82V633.6c-0.1 2.9-0.3 5.7-0.5 8.5zM512.1 357.8m-180.2 0a180.2 180.2 0 1 1 360.4 0 180.2 180.2 0 1 1-360.4 0ZM650.4 392.8c0 45.8-17.2 87.5-45.3 119.2-27.2 16.4-58.9 26-93 26-99.5 0-180.2-80.7-180.2-180.2 0-45.4 16.9-86.7 44.6-118.4 0.3-0.3 0.5-0.6 0.8-0.8 27.2-16.4 58.9-26 92.9-26 99.5 0 180.2 80.7 180.2 180.2z"  horiz-adv-x="1024" />

    
    <glyph glyph-name="pingjia" unicode="&#58902;" d="M499.5 827.8H183.1c-65.4 0-118.5-53-118.5-118.5v-649.9c0-65.4 53-118.5 118.5-118.5h483.3c65.4 0 118.5 53 118.5 118.5V545.5c0 31.8-12.8 62.3-35.5 84.6L582.5 793.9c-22.2 21.7-52 33.9-83 33.9zM105.1 671c0 65.4 53 118.5 118.5 118.5H540c24.5 0 48.2-7.7 68-21.6l-34.4 33.8c-20.9 16.8-47 26-74.1 26H183.1c-65.4 0-118.5-53-118.5-118.5v-649.9c0-20.1 5-39 13.9-55.6 9.3-4.6 19.4-7.8 29.9-9.9-2.1 8.8-3.3 17.8-3.3 27.2V671zM613.9-8.4c65.4 0 118.5 53 118.5 118.5v486c0 31.8-12.8 62.3-35.5 84.6L608 768c-19.8 13.9-43.5 21.6-68 21.6H223.6c-65.4 0-118.5-53-118.5-118.5v-649.9c0-9.4 1.2-18.5 3.3-27.2 7.2-1.4 14.6-2.3 22.2-2.3h483.3zM492.9 519.4H179.7c-1.5 0-2.7 1.2-2.7 2.7v48.5c0 1.5 1.2 2.7 2.7 2.7h313.2c1.5 0 2.7-1.2 2.7-2.7v-48.5c0-1.5-1.2-2.7-2.7-2.7zM492.9 345.3H179.7c-1.5 0-2.7 1.2-2.7 2.7v48.5c0 1.5 1.2 2.7 2.7 2.7h313.2c1.5 0 2.7-1.2 2.7-2.7V348c0-1.5-1.2-2.7-2.7-2.7zM492.9 185.7H179.7c-1.5 0-2.7 1.2-2.7 2.7V237c0 1.5 1.2 2.7 2.7 2.7h313.2c1.5 0 2.7-1.2 2.7-2.7v-48.5c0-1.6-1.2-2.8-2.7-2.8zM817.6 654.7L490.2 97.6c-2.4-4-3.6-8.7-3.7-13.3l-0.5-116.6c-0.1-20.4 21.9-33.3 39.7-23.3l101.5 57.2c4.1 2.3 7.5 5.7 9.9 9.7l327.3 557.1c7.4 12.7 3.2 29-9.5 36.4L854 664.2c-12.7 7.4-29 3.2-36.4-9.5zM614.8 39.6l327.3 557.1c2.5 4.3 3.6 8.9 3.6 13.5l-91.7 54c-12.7 7.4-29 3.2-36.4-9.5L490.2 97.6c-2.4-4-3.6-8.6-3.7-13.3l-0.5-114.5c5.7-1 11.7-0.3 17.4 2.9l101.5 57.2c4.1 2.3 7.5 5.7 9.9 9.7zM614.8 39.6l327.3 557.1c2.5 4.3 3.6 8.9 3.6 13.5l-91.7 54c-12.7 7.4-29 3.2-36.4-9.5L490.2 97.6c-2.4-4-3.6-8.6-3.7-13.3l-0.5-114.5c5.7-1 11.7-0.3 17.4 2.9l101.5 57.2c4.1 2.3 7.5 5.7 9.9 9.7zM864.6 614.5c-12.7 7.4-29.3 2.7-37.1-10.7L486.3 23.1l-0.3-53.3c5.7-1 11.7-0.3 17.4 2.9l101.5 57.2c4.1 2.3 7.5 5.7 9.9 9.7L930 576.1l-65.4 38.4z"  horiz-adv-x="1024" />

    
    <glyph glyph-name="chongzhi" unicode="&#58903;" d="M859.1-70.3H164.7c-6.6 0-11.9 5.3-11.9 11.9V820.2c0 6.6 5.3 11.9 11.9 11.9h694.4c6.6 0 11.9-5.3 11.9-11.9v-878.6c0-6.5-5.3-11.9-11.9-11.9zM272.1 832.1c-65.9 0-119.3-53.4-119.3-119.3v-663.7c0-23.6 6.9-45.5 18.7-64 12.2-4.2 25.2-6.6 38.9-6.6h479.5c65.9 0 119.3 53.4 119.3 119.3V761.6c0 23.6-6.9 45.5-18.7 64-12.2 4.2-25.2 6.6-38.9 6.6H272.1zM324.1 783.4c-65.9 0-119.3-53.4-119.3-119.3v-663.7c0-7.4 0.8-14.6 2.1-21.6 1.2 0 2.3-0.2 3.5-0.2h479.5c65.9 0 119.3 53.4 119.3 119.3V761.6c0 7.4-0.8 14.6-2.1 21.6-1.2 0-2.3 0.2-3.5 0.2H324.1zM758.5 735.9H265.2c-3.2 0-5.7-2.6-5.7-5.7v-603.8c0-3.2 2.6-5.7 5.7-5.7h493.3c3.2 0 5.7 2.6 5.7 5.7V730.2c0.1 3.2-2.5 5.7-5.7 5.7zM605.9 17.4H408.1c-1.5 0-2.7 1.2-2.7 2.7v48.3c0 1.5 1.2 2.7 2.7 2.7h197.8c1.5 0 2.7-1.2 2.7-2.7v-48.3c0-1.5-1.2-2.7-2.7-2.7zM486.5 353h-55.3c-7.2 0-13 5.8-13 13s5.8 13 13 13h55.3v22.8h-55.3c-7.2 0-13 5.8-13 13s5.8 13 13 13h43.4L416.1 520c-10.3 16.2 1.4 37.5 20.6 37.5h1.2c9.2 0 17.6-5.2 21.8-13.4l25.1-49.6c13-26.6 17.5-35.7 27-54.6h1.7c10.2 18.9 14.7 29.1 27 54.6l24.8 49.5c4.1 8.3 12.6 13.5 21.8 13.5 19.3 0 30.9-21.3 20.6-37.5l-58.8-92.4h43.8c7.2 0 13-5.8 13-13s-5.8-13-13-13h-55v-22.8h55c7.2 0 13-5.8 13-13s-5.8-13-13-13h-55v-28.4c0-14.1-11.4-25.6-25.6-25.6-14.1 0-25.6 11.4-25.6 25.6V353z"  horiz-adv-x="1024" />

    
    <glyph glyph-name="aixin" unicode="&#58904;" d="M509.1 630.4l-61.9 61.9c-84.7 84.7-222.2 84.7-306.9 0-84.7-84.7-84.7-222.2 0-306.9l61.9-61.9 285.9-285.9c11.6-11.6 30.3-11.6 41.9 0l286 285.9 61.9 61.9c84.7 84.7 84.7 222.2 0 306.9-84.7 84.7-222.2 84.7-306.9 0l-61.9-61.9zM486 81.6l285.9 285.9 61.9 61.9c46.3 46.3 67.3 108.2 63 168.7-5.9 83.8-73.4 151.3-157.2 157.2-60.5 4.3-122.5-16.7-168.7-63L509 630.4l-44 44-17.9 17.9c-84.7 84.7-222.2 84.7-306.9 0-84.7-84.7-84.7-222.2 0-306.9l17.9-17.9 44-44L444 81.6c11.7-11.6 30.4-11.6 42 0zM897.4 583.2c-0.1 70.5-57.1 127.4-127.6 127.5-55.6 0-111.2-21.1-153.6-63.5l-61.9-61.9-61.9 61.9c-84.7 84.7-222.2 84.7-306.9 0-84.7-84.7-84.7-222.2 0-306.9l61.9-61.9 49.3-49.3 147.4-147.4c11.6-11.6 30.3-11.6 41.9 0l285.9 285.9 61.9 61.9c42.5 42.4 63.7 98 63.6 153.7z"  horiz-adv-x="1024" />

    
    <glyph glyph-name="kaquan" unicode="&#58905;" d="M831.3 663.1h-90.7v-31.7c0-33.5-27.2-60.7-60.7-60.7s-60.7 27.2-60.7 60.7v31.7H186.7c-65.6 0-118.8-53.2-118.8-118.8v-314c0-65.6 53.2-118.8 118.8-118.8h432.5v31.7c0 33.5 27.2 60.7 60.7 60.7s60.7-27.2 60.7-60.7v-31.7h90.7c65.6 0 118.8 53.2 118.8 118.8v314c0 65.7-53.2 118.8-118.8 118.8zM884.7 650.4c-16.1 8.1-34.1 12.8-53.4 12.8h-90.7v-29.1c0-31.7-23.2-60-54.8-63-36.2-3.5-66.7 24.9-66.7 60.4v31.7H186.7c-65.6 0-118.8-53.2-118.8-118.8v-314c0-29.5 10.8-56.4 28.6-77.2h523.7C625 182 649.8 204 679.9 204s55-22 59.7-50.8h50.2c52.4 0 94.9 42.5 94.9 94.9V650.4zM725.3 592.1c-9.8-11.6-23.5-19.5-39.4-21-20.9-2-39.8 6.6-52.1 21H245.2c-62.9 0-113.9-51-113.9-113.9v-325h488.9C625 182 649.8 204 679.9 204s55-22 59.7-50.8h50.2c52.4 0 94.9 42.5 94.9 94.9v344H725.3zM633 514.9h91.9v-88.6H633zM633 346.5h91.9v-88.6H633z"  horiz-adv-x="1024" />

    
    <glyph glyph-name="faxian" unicode="&#58906;" d="M515.1 388.4m-438 0a438 438 0 1 1 876 0 438 438 0 1 1-876 0ZM894 426.7c0 141.5-67.2 267.2-171.3 347.3C661 807.4 590.2 826.4 515.1 826.4c-241.9 0-438-196.1-438-438 0-141.5 67.2-267.2 171.3-347.3 61.8-33.4 132.5-52.3 207.7-52.3 241.8 0 437.9 196.1 437.9 437.9zM894 426.7c0 128.3-55.2 243.4-143 323.5-54.4 24.2-114.5 37.8-177.8 37.8-241.9 0-438-196.1-438-438 0-128.2 55.3-243.4 143.1-323.5 54.4-24.2 114.5-37.8 177.8-37.8 241.8 0.1 437.9 196.2 437.9 438zM710.9 606.2l-316.8-84.9c-6.1-1.6-10.8-6.4-12.4-12.4l-84.9-316.8c-3.5-13.1 8.4-25 21.5-21.5l316.8 84.9c6.1 1.6 10.8 6.4 12.4 12.4l84.9 316.8c3.5 13-8.4 25-21.5 21.5zM515.2 328.8c-32.9 0-59.5 26.7-59.5 59.5 0 32.9 26.7 59.5 59.5 59.5 32.9 0 59.5-26.7 59.5-59.5s-26.7-59.5-59.5-59.5z"  horiz-adv-x="1024" />

    
    <glyph glyph-name="manyidu" unicode="&#58907;" d="M330.9 483.7v-443.9h443.7c27.9 0 52.5 18.3 60.5 45.1l95 317.5c12.1 40.5-18.2 81.3-60.5 81.3h-233c-22.4 0-38.3 21.6-31.8 43.1 24.3 79.7 60.2 246-47.1 287.4 0 0-36.9 23.1-60.1-10.6-7.7-11.2-10.8-24.9-10.4-38.5 1.5-48.9-4.6-218-156.3-281.4zM795.8 84.9l95 317.5c12.1 40.5-18.2 81.3-60.5 81.3h-233c-22.4 0-38.3 21.6-31.8 43.1 24.3 79.7 60.2 246-47.1 287.4 0 0-2.3 1.5-6.2 3.1-5.1-2.8-10.1-7.2-14.6-13.7-7.7-11.2-10.8-24.9-10.4-38.5 1.5-48.9-4.6-218-156.3-281.4v-443.9h404.4c27.9 0 52.5 18.4 60.5 45.1zM338.3-45.8H96.6c-2.9 0-5.3 2.4-5.3 5.3V638.7c0 2.9 2.4 5.3 5.3 5.3h241.7c2.9 0 5.3-2.4 5.3-5.3v-679.2c-0.1-2.9-2.4-5.3-5.3-5.3zM145.6 643.9c-30 0-54.3-24.3-54.3-54.3v-581.2c0-2.3 0.2-4.6 0.5-6.8 0.6 0 1.2-0.1 1.8-0.1h143.7c30 0 54.3 24.3 54.3 54.3V637c0 2.3-0.2 4.6-0.5 6.8-0.6 0-1.2 0.1-1.8 0.1H145.6zM182.3 609.5c-30 0-54.3-24.3-54.3-54.3v-553.7h109.3c30 0 54.3 24.3 54.3 54.3V609.5H182.3zM217.4 126m-45.9 0a45.9 45.9 0 1 1 91.8 0 45.9 45.9 0 1 1-91.8 0ZM258.1 129.5c0 13.7-6.1 25.9-15.7 34.3-6 2.9-12.7 4.7-19.9 4.7-25.3 0-45.9-20.5-45.9-45.9 0-13.7 6.1-25.9 15.7-34.3 6-2.9 12.7-4.7 19.9-4.7 25.4 0 45.9 20.5 45.9 45.9zM176.7 122.6c0 25.3 20.5 45.9 45.9 45.9 6 0 11.7-1.3 17-3.5-0.7 0.8-1.5 1.5-2.3 2.2-6 2.9-12.7 4.7-19.9 4.7-25.3 0-45.9-20.5-45.9-45.9 0-13.7 6.1-25.9 15.7-34.3 0.9-0.5 1.9-0.8 2.9-1.2-8.2 8.3-13.4 19.5-13.4 32.1z"  horiz-adv-x="1024" />

    
    <glyph glyph-name="qiandao" unicode="&#58908;" d="M953.2-13.1H70.7c-4 0-7.2 3.2-7.2 7.2V671.2c0 4 3.2 7.2 7.2 7.2h882.4c4 0 7.2-3.2 7.2-7.2V-6c0.1-3.9-3.2-7.1-7.1-7.1zM155.4 678.4c-50.7 0-91.8-41.1-91.8-91.8v-507.9c0-11.8 2.3-23 6.3-33.3 3.9-0.5 7.8-0.8 11.8-0.8h713.2c50.7 0 91.8 41.1 91.8 91.8V644.2c0 11.8-2.3 23-6.3 33.3-3.9 0.5-7.8 0.8-11.8 0.8H155.4zM886.7 136.3V644.2c0 11.8-2.3 23-6.3 33.3-3.9 0.5-7.8 0.8-11.8 0.8H248.3c-50.7 0-91.8-41.1-91.8-91.8v-507.9c0-11.8 2.3-23 6.3-33.3 3.9-0.5 7.8-0.8 11.8-0.8h620.3c50.7 0 91.8 41.1 91.8 91.8zM730.3 493.6c-21.7 21.7-56.9 21.7-78.6 0L505.5 347.4l-69 69c-21.7 21.7-56.9 21.7-78.6 0-21.7-21.7-21.7-56.9 0-78.6l106.2-106.2c0.6-0.7 1.1-1.5 1.8-2.2 21.7-21.7 56.9-21.7 78.6 0L730.3 415c21.7 21.7 21.7 56.9 0 78.6zM417.1 783v-209.2c0-2.3-1.9-4.2-4.2-4.2h-98.3c-2.3 0-4.2 1.9-4.2 4.2V783c0 2.3 1.9 4.2 4.2 4.2H413c2.3 0 4.1-1.9 4.1-4.2zM353.7 786.1c-24.6-4.7-43.1-26.3-43.1-52.3v-111c0-26 18.6-47.5 43.1-52.3 24.6 4.7 43.1 26.3 43.1 52.3v111c0 26-18.5 47.6-43.1 52.3zM361.7 783.9c-20.5-7.4-35.1-26.9-35.1-50v-111c0-23 14.7-42.6 35.1-50 20.5 7.4 35.1 26.9 35.1 50v111c0 23-14.6 42.5-35.1 50zM732.6 783v-209.2c0-2.3-1.9-4.2-4.2-4.2h-98.3c-2.3 0-4.2 1.9-4.2 4.2V783c0 2.3 1.9 4.2 4.2 4.2h98.3c2.3 0 4.2-1.9 4.2-4.2zM669.2 786.1c-24.6-4.7-43.1-26.3-43.1-52.3v-111c0-26 18.6-47.5 43.1-52.3 24.6 4.7 43.1 26.3 43.1 52.3v111c0 26-18.6 47.6-43.1 52.3zM677.2 783.9c-20.5-7.4-35.1-26.9-35.1-50v-111c0-23 14.7-42.6 35.1-50 20.5 7.4 35.1 26.9 35.1 50v111c0 23-14.7 42.5-35.1 50z"  horiz-adv-x="1024" />

    
    <glyph glyph-name="wuliu" unicode="&#58909;" d="M952.9 180.6H68c-2.5 0-4.5 2-4.5 4.5v95h889.4c3 0 5.5-2.5 5.5-5.5v-88.5c0-3.1-2.5-5.5-5.5-5.5zM437.1 557H249.6c-19.3 0-37.7-8.5-50.3-23.2L79.2 392.6c-10.2-11.9-15.7-27.1-15.7-42.8v-128.4h383.1V547.5c0 5.2-4.3 9.5-9.5 9.5zM437.1 522.1h-167c-17.3 0-33.8-7.6-45-20.8L117.4 374.8c-9.1-10.7-14.1-24.3-14.1-38.3v-115h343.3v291c0 5.3-4.3 9.6-9.5 9.6zM372.7 399.1H222.8c-10.9 0-16.5 12.9-9.2 20.9l54.7 59.7c2.4 2.6 5.7 4.1 9.2 4.1h95.3c6.9 0 12.5-5.6 12.5-12.5v-59.7c-0.1-6.9-5.7-12.5-12.6-12.5zM916.3 221.5H428.6v58.6h487.7c1.7 0 3.2-1.4 3.2-3.2v-52.3c0-1.7-1.4-3.1-3.2-3.1zM897.8 280.1H446.6V642.8c0 3.5 2.9 6.4 6.4 6.4h438.4c3.5 0 6.4-2.9 6.4-6.4v-362.7zM869.3 280.1h-395V614.8c0 3.2 2.6 5.7 5.7 5.7h383.6c3.2 0 5.7-2.6 5.7-5.7v-334.7zM274.9 154.4m-60.7 0a60.7 60.7 0 1 1 121.4 0 60.7 60.7 0 1 1-121.4 0ZM274.9 215.1c-33.5 0-60.7-27.2-60.7-60.7 0-17 7-32.4 18.4-43.5l88.3 83.1c-11.1 12.9-27.6 21.1-46 21.1zM274.9 154.4m-43 0a43 43 0 1 1 86 0 43 43 0 1 1-86 0ZM821.2 154.4m-60.7 0a60.7 60.7 0 1 1 121.4 0 60.7 60.7 0 1 1-121.4 0ZM821.2 215.1c-33.5 0-60.7-27.2-60.7-60.7 0-17 7-32.4 18.4-43.5l88.3 83.1c-11.2 12.9-27.6 21.1-46 21.1zM821.2 154.4m-43 0a43 43 0 1 1 86 0 43 43 0 1 1-86 0ZM817.5 620.6H526.1c-28.6 0-51.9-23.2-51.9-51.9v-288.6h3.5L852 607.3c-9.2 8.2-21.3 13.3-34.5 13.3zM818.1 324.2H525.5v248c0 2.3 1.9 4.3 4.3 4.3h284.1c2.3 0 4.3-1.9 4.3-4.3v-248zM699.6 501.5l-23.3 13.4c-2.8 1.6-6.2 1.6-9 0L644 501.5c-6-3.5-13.5 0.9-13.5 7.8v67.1h82.7v-67.1c-0.1-6.9-7.6-11.3-13.6-7.8zM364.7 462.9v20.9h-87.3c-3.5 0-6.9-1.5-9.2-4.1L213.6 420c-2.4-2.7-3.3-5.9-3.2-9h68.9l85.4 51.9zM355.7 411H227.8l52.9 57.9c1.7 1.9 4.1 2.9 6.6 2.9h77.3V420c0.1-5-3.9-9-8.9-9z"  horiz-adv-x="1024" />

    
    <glyph glyph-name="baokuan" unicode="&#58910;" d="M483.4 823.1c2.1 6.4-5.7 11.4-10.6 6.9-62.5-56.9-259.2-252.4-299.8-492.7-27.2-161 59.8-320.6 211.6-380.8 39.9-15.8 83.2-24.5 128.5-24.5 22.6 0 44.8 2.2 66.3 6.3 192 37 311.8 229.6 264 419.2-17.7 70.3-47.7 137.2-88.7 197.4-9.7 14.3-31.5 11.3-37.1-5.1-24.9-72.9-70.4-122.1-122.8-122.1-79 0-143 111.3-143 248.1-0.8 42.5 19.8 111.5 31.6 147.3zM479.3-25.8c22.6 0 44.8 2.2 66.3 6.3 192 37 311.8 229.6 264 419.2-14.5 57.5-37.2 112.6-67.4 163.7-9.8 2.3-20.9-2.6-24.7-13.6-24.9-72.9-70.4-122.1-122.8-122.1-79 0-143 111.3-143 248.1-0.8 42.4 19.8 111.4 31.6 147.3 2.1 6.4-5.7 11.4-10.6 6.9-62.4-56.9-259.1-252.4-299.7-492.7-15.5-91.6 6.1-182.8 55.5-255.5 33.4-35.5 74.6-64.2 122.3-83.1 39.8-15.8 83.2-24.5 128.5-24.5zM479.3-25.8c22.6 0 44.8 2.2 66.3 6.3 192 37 311.8 229.6 264 419.2-14.5 57.5-37.2 112.6-67.4 163.7-9.8 2.3-20.9-2.6-24.7-13.6-24.9-72.9-70.4-122.1-122.8-122.1-79 0-143 111.3-143 248.1-0.8 42.4 19.8 111.4 31.6 147.3 2.1 6.4-5.7 11.4-10.6 6.9-62.4-56.9-259.1-252.4-299.7-492.7-15.5-91.6 6.1-182.8 55.5-255.5 33.4-35.5 74.6-64.2 122.3-83.1 39.8-15.8 83.2-24.5 128.5-24.5zM479.3-25.8c22.6 0 44.8 2.2 66.3 6.3 192 37 311.8 229.6 264 419.2-14.5 57.5-37.2 112.6-67.4 163.7-9.8 2.3-20.9-2.6-24.7-13.6-24.9-72.9-70.4-122.1-122.8-122.1-79 0-143 111.3-143 248.1-0.3 16.7 2.8 37.6 7.3 59-82.9-84.4-223.1-252.4-256.6-451.1-11.7-69.5-2.2-138.6 24.7-199.7 0.5-0.7 1-1.5 1.5-2.3 33.4-35.5 74.6-64.2 122.3-83.1 39.7-15.7 83.1-24.4 128.4-24.4zM367.2 322.8c8.1 0 14.6-6.5 14.6-14.6v-25.6l-1.2-21c9 8.4 20 16.4 35.2 16.4 24.2 0 34.6-16.8 34.6-45v-55.2c0-8.1-6.5-14.6-14.6-14.6h-0.2c-8.1 0-14.6 6.5-14.6 14.6v51.6c0 17.2-4.8 23.4-15.8 23.4-9.2 0-15-4.4-23.4-12.6v-62.4c0-8.1-6.5-14.6-14.6-14.6s-14.6 6.5-14.6 14.6V308.2c0.1 8.1 6.6 14.6 14.6 14.6zM473.7 219c0 37.4 25.8 59 53.8 59 28 0 53.8-21.6 53.8-59 0-37-25.8-58.6-53.8-58.6-28 0-53.8 21.6-53.8 58.6z m77.6 0c0 21.2-8.6 35-23.8 35s-23.8-13.8-23.8-35c0-21 8.6-34.6 23.8-34.6s23.8 13.6 23.8 34.6zM604.5 202.4V252H600c-6.3 0-11.3 5.1-11.3 11.3 0 5.9 4.5 10.8 10.4 11.3l6.8 0.5 2.3 19.9c0.6 5.7 5.5 10.1 11.3 10.1h3.1c6.3 0 11.3-5.1 11.3-11.3v-18.7h16.3c6.3 0 11.3-5.1 11.3-11.3v-0.5c0-6.3-5.1-11.3-11.3-11.3h-16.3v-49.6c0-12.8 5.2-18.8 15.2-18.8 3.6 0 8 1.2 11 2.4l2.5-11.3c1.3-5.9-2.4-11.8-8.3-13-3.9-0.8-8.2-1.3-13-1.3-26.6 0-36.8 16.8-36.8 42z"  horiz-adv-x="1024" />

    
    <glyph glyph-name="jiankang" unicode="&#58911;" d="M845.5 706.8H696.3c-8.3 0-15.6-5.8-16.9-13.9-6.7-40.5-41.8-71.4-84.2-71.4H434.4c-42.4 0-77.6 30.9-84.2 71.4-1.3 8.1-8.6 13.9-16.9 13.9H182.4c-74.3 0-134.6-60.3-134.6-134.6v-453c0-74.3 60.3-134.6 134.6-134.6h663c74.3 0 134.6 60.3 134.6 134.6v453c0.1 74.3-60.2 134.6-134.5 134.6zM52 87.6c1.3-5.5 3-10.8 5-16 0.9-2.4 1.8-4.9 2.9-7.3 3.1-6.8 6.5-13.4 10.6-19.6 16.3-7 34.1-10.9 52.9-10.9h663c74.3 0 134.6 60.3 134.6 134.6v453c0 27.6-8.3 53.1-22.6 74.5-8 3.4-16.4 6.1-25.1 7.9-0.2 0-0.3 0.1-0.4 0.1-8.8 1.8-18 2.8-27.4 2.8H696.3c-8.3 0-15.6-5.8-16.9-13.9-0.8-5.1-2.1-10-3.8-14.7-3.4-9.4-8.3-18.1-14.6-25.7-6.3-7.6-13.8-14.1-22.3-19.1-8.5-5-17.9-8.7-28-10.5-5-0.9-10.2-1.4-15.5-1.4H434.4c-42.4 0-77.6 30.9-84.2 71.4-0.7 4.3-3.1 7.8-6.3 10.3-1.2 0.8-2.6 1.3-3.8 2.1-2.1 0.9-4.4 1.5-6.8 1.5H182.4c-74.3 0-134.6-60.3-134.6-134.6v-453c0-8.3 1-16.4 2.4-24.3 0.6-2.3 1.2-4.8 1.8-7.2zM636 660.8H393.6c-3.5 0-6.3 2.8-6.3 6.3V785.8c0 3.5 2.8 6.3 6.3 6.3H636c3.5 0 6.3-2.8 6.3-6.3v-118.6c0-3.5-2.8-6.4-6.3-6.4zM452.9 792.1c-36.3 0-65.6-29.4-65.6-65.6 0-14.7 5-28.1 13.1-39 9.7-5.6 20.8-9.1 32.8-9.1H557c36.3 0 65.6 29.4 65.6 65.6 0 14.7-5 28.1-13.1 39-9.7 5.6-20.8 9.1-32.8 9.1H452.9zM557 678.3c36.3 0 65.6 29.4 65.6 65.6 0 7.1-1.2 14-3.4 20.4-0.3 0.4-0.5 0.8-0.7 1.2-9.7 5.6-20.8 9.1-32.8 9.1H462c-36.3 0-65.6-29.4-65.6-65.6 0-7.1 1.2-14 3.4-20.4 0.3-0.4 0.5-0.8 0.7-1.2 9.7-5.6 20.8-9.1 32.8-9.1H557zM921 168.5v453c0 27.6-8.3 53.1-22.6 74.5-8 3.4-16.4 6.1-25.1 7.9-0.2 0-0.3 0.1-0.4 0.1-8.8 1.8-18 2.8-27.4 2.8H696.3c-8.3 0-15.6-5.8-16.9-13.9-0.8-5.1-2.1-10-3.8-14.7-3.4-9.4-8.3-18.1-14.6-25.7-6.3-7.6-13.8-14.1-22.3-19.1-8.5-5-17.9-8.7-28-10.5-5-0.9-10.2-1.4-15.5-1.4H434.4c-7.7 0-15.1 1.3-22.3 3.3H171.4c-26.5 0-48-21.5-48-48V34h663c74.3-0.1 134.6 60.1 134.6 134.5zM625.7 404.6H581v44.7c0 29.8-24.2 54-54 54h-9.7c-29.8 0-54-24.2-54-54v-44.7h-44.7c-29.8 0-54-24.2-54-54v-9.7c0-29.8 24.2-54 54-54h44.7v-44.7c0-29.8 24.2-54 54-54h9.7c29.8 0 54 24.2 54 54v44.7h44.7c29.8 0 54 24.2 54 54v9.7c0 29.8-24.2 54-54 54zM625.7 404.6H581v17.5h-12v44.7c0 7.5-1.5 14.6-4.3 21.1-9.7 9.5-23.1 15.5-37.8 15.5h-9.7c-29.8 0-54-24.2-54-54v-44.7h-44.7c-29.8 0-54-24.2-54-54v-9.7c0-7.5 1.5-14.6 4.3-21.1 9.7-9.5 23.1-15.5 37.8-15.5h44.7v-17.5h12v-44.7c0-7.5 1.5-14.6 4.3-21.1 9.7-9.5 23.1-15.5 37.8-15.5h9.7c29.8 0 54 24.2 54 54v44.7h44.7c29.8 0 54 24.2 54 54V368c0 7.5-1.5 14.6-4.3 21.1-9.8 9.5-23.1 15.5-37.8 15.5z"  horiz-adv-x="1024" />

    
    <glyph glyph-name="diaopai" unicode="&#58912;" d="M675.7 683.2L516 621.1c-25.6-9.9-45.9-30-56.1-55.5L300.4 170c-20.5-50.9 4.1-108.8 55-129.3L587-52.8c50.9-20.5 108.8 4.1 129.3 55l159.5 395.6c10.3 25.4 9.5 54-2 78.9L802 632.3c-22 47.7-77.3 70-126.3 50.9zM675.7 683.2L516 621.1c-25.6-9.9-45.9-30-56.1-55.5L300.4 170c-10.4-25.7-9.1-53.2 1.1-76.8l61.7 37.6 514.2 337.3c-1 2.9-2.2 5.8-3.5 8.7L802 632.3c-22 47.7-77.3 70-126.3 50.9zM663.5 618.8l-129.9-50.5c-20.8-8.1-37.3-24.4-45.7-45.1L358.2 201.4c-16.7-41.4 3.3-88.5 44.7-105.2l188.4-76c41.4-16.7 88.5 3.3 105.2 44.7l129.7 321.8c8.3 20.7 7.8 43.9-1.6 64.2l-58.5 126.5c-17.9 38.8-62.8 56.9-102.6 41.4zM610.615789 471.676068a63.2 63.2 0 1 1 116.312988 49.479782 63.2 63.2 0 1 1-116.312988-49.479782ZM709.3 692.6L538 697.9c-27.4 0.9-54-9.7-73.4-29.1L163 367.2c-38.8-38.8-38.8-101.7 0-140.6L339.6 50c38.8-38.8 101.7-38.8 140.6 0l301.7 301.7c19.4 19.4 29.9 45.9 29.1 73.4l-5.3 171.3c-1.8 52.5-43.9 94.6-96.4 96.2zM709.3 692.6L538 697.9c-27.4 0.9-54-9.7-73.4-29.1L163 367.2c-19.6-19.6-29.2-45.4-29-71.1l71.5 10.4 605.2 109.2c0.2 3.1 0.3 6.2 0.2 9.4l-5.3 171.3c-1.7 52.5-43.8 94.6-96.3 96.2zM672.8 638.2l-139.3 4.3c-22.3 0.7-43.9-7.9-59.7-23.6L228.5 373.5c-31.6-31.6-31.6-82.7 0-114.3l143.6-143.6c31.6-31.6 82.7-31.6 114.3 0l245.3 245.3c15.8 15.8 24.3 37.4 23.6 59.7L751 559.9c-1.2 42.7-35.5 77-78.2 78.3zM629.8 523.4m-63.2 0a63.2 63.2 0 1 1 126.4 0 63.2 63.2 0 1 1-126.4 0Z"  horiz-adv-x="1024" />

    
    <glyph glyph-name="gouwuche" unicode="&#58913;" d="M524.1 83.9m-81.8 0a81.8 81.8 0 1 1 163.6 0 81.8 81.8 0 1 1-163.6 0ZM524.1 165.7c-45.2 0-81.8-36.6-81.8-81.8 0-23 9.5-43.7 24.7-58.5l118.9 111.9c-15 17.3-37.1 28.4-61.8 28.4zM524.1 83.9m-57.8 0a57.8 57.8 0 1 1 115.6 0 57.8 57.8 0 1 1-115.6 0ZM764.2 83.9m-81.8 0a81.8 81.8 0 1 1 163.6 0 81.8 81.8 0 1 1-163.6 0ZM764.2 165.7c-45.2 0-81.8-36.6-81.8-81.8 0-23 9.5-43.7 24.7-58.5L826 137.3c-14.9 17.3-37 28.4-61.8 28.4zM764.2 83.9m-57.8 0a57.8 57.8 0 1 1 115.6 0 57.8 57.8 0 1 1-115.6 0ZM858 634H381.1c-25.8 0-43.9-25.5-35.4-49.8l74.1-211.5c5.7-16.2 21-27.1 38.2-27.1h361.1c19.4 0 36 13.8 39.6 32.9l38.8 207.9c4.7 24.7-14.3 47.6-39.5 47.6zM419.8 373.1L291 744.3c-4.9 14.2-18.3 23.7-33.3 23.7H104.3c-22.9 0-41.5-18.6-41.5-41.5S81.4 685 104.3 685h99.1c15 0 28.4-9.5 33.3-23.7l128.8-371.2c5.7-16.5 21.2-27.5 38.7-27.5h423.9c26.4 0 47.7-21.4 47.7-47.7 0-26.4-21.4-47.7-47.7-47.7H420.9c-22.9 0-41.5-18.6-41.5-41.5s18.6-41.5 41.5-41.5l407.2-0.1c72.3 0 130.9 58.6 130.9 130.9 0 72.3-58.6 130.9-130.9 130.9H458.5c-17.5-0.3-33 10.8-38.7 27.2zM828.1 345.6H458.5c-17.4 0-33 11-38.7 27.5L291 744.3c-4.9 14.2-18.3 23.7-33.3 23.7H105.2c-6.8-7.4-11-17.2-11-28.1 0-22.9 18.6-41.5 41.5-41.5h99.1c15 0 28.4-9.5 33.3-23.7L397 303.6c5.7-16.5 21.2-27.5 38.7-27.5h423.9c26.4 0 47.7-21.4 47.7-47.7 0-25.7-20.4-46.7-45.9-47.7-8.6-8.4-20.3-13.6-33.3-13.6H421.7c-6.8-7.4-11-17.2-11-28.1 0-22.9 18.6-41.5 41.5-41.5l407.2-0.1c12.2 0 24.1 1.8 35.3 4.9 38.4 22.8 64.2 64.6 64.2 112.5 0.1 72.2-58.5 130.8-130.8 130.8zM835.8 570.9l24.4 63.1H381.1c-25.8 0-43.9-25.5-35.4-49.8l72.9-208.3 48.4-1.7 368.8 196.7zM810.1 605.4H433.7c-23.5 0-40-23.2-32.2-45.5l57.4-164c4.6-13 16.8-21.7 30.6-21.7H779c15.5 0 28.9 11.1 31.7 26.4l31.1 166.6c3.8 19.9-11.5 38.2-31.7 38.2z"  horiz-adv-x="1024" />

    
    <glyph glyph-name="gouwuqingdan" unicode="&#58914;" d="M588.2 836.7H265.9c-66.6 0-120.7-54-120.7-120.7v-661.9c0-66.6 54-120.7 120.7-120.7h492.3c66.6 0 120.7 54 120.7 120.7v495c0 32.4-13 63.4-36.1 86.1l-170 166.9c-22.7 22.2-53 34.6-84.6 34.6zM186.5 677c0 66.6 54 120.7 120.7 120.7h322.2c25 0 49.1-7.8 69.3-22l-35.1 34.4a120.47 120.47 0 0 1-75.4 26.5H265.9c-66.6 0-120.7-54-120.7-120.7V54c0-20.5 5.1-39.7 14.1-56.6 9.5-4.7 19.8-8 30.5-10.1-2.1 8.9-3.3 18.2-3.3 27.7V677zM704.7-15c66.6 0 120.7 54 120.7 120.7v495c0 32.4-13 63.4-36.1 86.1l-90.5 88.9c-20.2 14.2-44.3 22-69.3 22H307.2c-66.6 0-120.7-54-120.7-120.7v-661.9c0-9.6 1.2-18.8 3.3-27.7 7.3-1.4 14.8-2.3 22.6-2.3h492.3zM355.4 503.1h-90.6c-0.9 0-1.7 0.8-1.7 1.7v90.6c0 0.9 0.8 1.7 1.7 1.7h90.6c0.9 0 1.7-0.8 1.7-1.7v-90.6c-0.1-1-0.8-1.7-1.7-1.7zM726.5 522.6H407.3c-1.5 0-2.7 1.2-2.7 2.7v49.5c0 1.5 1.2 2.7 2.7 2.7h319.1c1.5 0 2.7-1.2 2.7-2.7v-49.5c0.1-1.5-1.1-2.7-2.6-2.7zM355.4 325.8h-90.6c-0.9 0-1.7 0.8-1.7 1.7v90.6c0 0.9 0.8 1.7 1.7 1.7h90.6c0.9 0 1.7-0.8 1.7-1.7v-90.6c-0.1-0.9-0.8-1.7-1.7-1.7zM726.5 345.3H407.3c-1.5 0-2.7 1.2-2.7 2.7v49.5c0 1.5 1.2 2.7 2.7 2.7h319.1c1.5 0 2.7-1.2 2.7-2.7V348c0.1-1.5-1.1-2.7-2.6-2.7zM355.4 163.2h-90.6c-0.9 0-1.7 0.8-1.7 1.7v90.6c0 0.9 0.8 1.7 1.7 1.7h90.6c0.9 0 1.7-0.8 1.7-1.7v-90.6c-0.1-0.9-0.8-1.7-1.7-1.7zM726.5 182.7H407.3c-1.5 0-2.7 1.2-2.7 2.7V235c0 1.5 1.2 2.7 2.7 2.7h319.1c1.5 0 2.7-1.2 2.7-2.7v-49.5c0.1-1.6-1.1-2.8-2.6-2.8zM314.9 351.2l-11-11c-0.3-0.3-0.9-0.3-1.2 0l-38.2 38.2c-0.3 0.3-0.3 0.9 0 1.2l11 11c0.3 0.3 0.9 0.3 1.2 0l38.2-38.2c0.4-0.3 0.4-0.9 0-1.2zM302.1 340l-11 11c-0.3 0.3-0.3 0.9 0 1.2l53.3 53.3c0.3 0.3 0.9 0.3 1.2 0l11-11c0.3-0.3 0.3-0.9 0-1.2L303.3 340c-0.4-0.3-0.9-0.3-1.2 0z"  horiz-adv-x="1024" />

    
    <glyph glyph-name="biaoqian" unicode="&#58915;" d="M831.8 276.9l102.3 64c30.3 19 30.3 63.1 0 82.1l-96.6 60.4c-17.5 10.9-26.1 31.8-21.5 51.9l27 117.5c8 34.8-23.2 66.1-58 58l-111.1-25.6c-20.1-4.6-41 4-51.9 21.5L558.1 809c-19 30.3-63.1 30.3-82.1 0l-60.4-96.6c-10.9-17.5-31.8-26.1-51.9-21.5L246.1 718c-34.8 8-66.1-23.2-58-58l25.6-111.1c4.6-20.1-4-41-21.5-51.9L89.9 433c-30.3-19-30.3-63.1 0-82.1l96.6-60.4c17.5-10.9 26.1-31.8 21.5-51.9L180.9 121c-8-34.8 23.2-66.1 58-58L350 88.6c20.1 4.6 41-4 51.9-21.5l64-102.3c19-30.3 63.1-30.3 82.1 0l60.4 96.6c10.9 17.5 31.8 26.1 51.9 21.5l117.5-27.1c34.8-8 66.1 23.2 58 58L810.3 225c-4.6 20.1 4 41 21.5 51.9zM855.2 459l-96.6 60.4c-17.5 10.9-26.1 31.8-21.5 51.9l27.1 117.5c1.4 6 1.6 11.8 0.8 17.4l-91-21c-20.1-4.6-41 4-51.9 21.5l-11.4 18.2-15.7-3.6c-20.1-4.6-41 4-51.9 21.5l-51.3 82c-6.2-3.7-11.6-9-15.9-15.7l-60.4-96.6c-10.9-17.5-31.8-26.1-51.9-21.5l-117.5 27c-34.8 8-66.1-23.2-58-58l25.6-111.1c4.6-20.1-4-41-21.5-51.9L89.9 433c-30.3-19-30.3-63.1 0-82.1l96.6-60.4c17.5-10.9 26.1-31.8 21.5-51.9L180.9 121c-1.4-6-1.6-11.8-0.8-17.4l91 21c20.1 4.6 41-4 51.9-21.5l11.4-18.2 15.6 3.6c20.1 4.6 41-4 51.9-21.5l51.3-82c6.2 3.7 11.6 9 15.9 15.7l60.4 96.6c10.9 17.5 31.8 26.1 51.9 21.5L699 91.9c34.8-8 66.1 23.2 58 58L731.4 261c-4.6 20.1 4 41 21.5 51.9l102.3 64c30.3 19 30.3 63.1 0 82.1zM752.9 313l102.3 64c30.3 19 30.3 63.1 0 82.1l-96.6 60.4c-17.5 10.9-26.1 31.8-21.5 51.9l13.9 60.3-6.5-1.5c-20.1-4.6-41 4-51.9 21.5l-20.7 33.2c-19.4-3.6-39.2 5-49.7 21.9L610.8 725l-15.7-3.6c-20.1-4.6-41 4-51.9 21.5l-1.8 2.9-55.4-88.5c-10.9-17.5-31.8-26.1-51.9-21.5l-117.5 27.1c-34.8 8-66.1-23.2-58-58l25.6-111.1c4.6-20.1-4-41-21.5-51.9l-102.3-64c-21-13.1-27.5-38.4-19.3-59l45.5-28.4c8.9-5.6 15.5-13.7 19.3-23.1l51.2-32c17.5-10.9 26.1-31.8 21.5-51.9l-13.9-60.3 6.5 1.5c20.1 4.6 41-4 51.9-21.5l11.4-18.2 15.6 3.6c20.1 4.6 41-4 51.9-21.5l20.7-33.2c19.4 3.6 39.2-5 49.7-21.9l1.8-2.9 55.3 88.4c10.9 17.5 31.8 26.1 51.9 21.5L699 91.9c34.8-8 66.1 23.2 58 58L731.4 261c-4.6 20.2 4 41 21.5 52z"  horiz-adv-x="1024" />

    
    <glyph glyph-name="xinxi" unicode="&#58916;" d="M921.1 578.4c15.2 0 27.4-12.3 27.4-27.4v-490c0-24.7-30-36.8-47.2-19.1L779.9 167.7c-5.2 5.3-12.3 8.4-19.7 8.4H381.6c-15.2 0-27.4 12.3-27.4 27.4V550.9c0 15.2 12.3 27.4 27.4 27.4h539.5zM921.1 578.4c15.2 0 27.4-12.3 27.4-27.4v-490c0-24.7-30-36.8-47.2-19.1L779.9 167.7c-5.2 5.3-12.3 8.4-19.7 8.4H381.6c-15.2 0-27.4 12.3-27.4 27.4V550.9c0 15.2 12.3 27.4 27.4 27.4h539.5zM366.5 573.8c4.3 2.9 9.5 4.6 15.1 4.6h539.5c15.2 0 27.4-12.3 27.4-27.4v-490c0-24.7-30-36.8-47.2-19.1l-51.7 53.5c-2.5 3.1-5.1 6.2-8 9-5.2 5.2-10.6 10.4-15.9 15.7l-45.9 47.5c-2.3 2.4-5.1 4.3-8.1 5.7-158.8 156.6-337.8 333.1-405.2 400.5zM857 513.6c11.5 0 20.9-9.4 20.9-20.9v-373.4c0-18.8-22.9-28-35.9-14.5l-92.6 95.8c-3.9 4.1-9.4 6.4-15 6.4H445.8c-11.5 0-20.9 9.4-20.9 20.9V492.7c0 11.5 9.4 20.9 20.9 20.9H857zM96.8 744.6c-15.2 0-27.4-12.3-27.4-27.4v-489.9c0-24.7 30-36.8 47.2-19.1L238 333.9c5.2 5.3 12.3 8.4 19.7 8.4h378.5c15.2 0 27.4 12.3 27.4 27.4V717.2c0 15.2-12.3 27.4-27.4 27.4H96.8zM96.8 744.6c-15.2 0-27.4-12.3-27.4-27.4v-489.9c0-24.7 30-36.8 47.2-19.1L238 333.9c5.2 5.3 12.3 8.4 19.7 8.4h378.5c15.2 0 27.4 12.3 27.4 27.4V717.2c0 15.2-12.3 27.4-27.4 27.4H96.8zM651.4 740c-4.3 2.9-9.5 4.6-15.1 4.6H96.8c-15.2 0-27.4-12.3-27.4-27.4v-489.9c0-24.7 30-36.8 47.2-19.1l51.7 53.5c2.5 3.1 5.1 6.2 8 9 5.2 5.2 10.6 10.4 15.9 15.7l45.9 47.5c2.3 2.4 5.1 4.3 8.1 5.7C405.1 496.1 584.1 672.7 651.4 740zM160.9 679.8c-11.5 0-20.9-9.4-20.9-20.9v-373.4c0-18.8 22.9-28 35.9-14.5l92.6 95.8c3.9 4.1 9.4 6.4 15 6.4H572c11.5 0 20.9 9.4 20.9 20.9V658.9c0 11.5-9.4 20.9-20.9 20.9H160.9z"  horiz-adv-x="1024" />

    
    <glyph glyph-name="qianbao" unicode="&#58917;" d="M208.6 544.2l372.1 232.5c28.4 17.7 65.7 9.1 83.5-19.2l133.5-213.3H208.6zM749.5 544.2l-133.3 213c-6.9 11-16.7 18.9-27.7 23.6-2.7-1.2-5.3-2.5-7.8-4.1L208.6 544.2h540.9zM749.2 544.2L633.6 728.9c-0.1 0.1-0.1 0.2-0.2 0.3-10.3 16.2-32.1 20.5-48.5 10.4-73.3-45.4-313.8-195.5-313.8-195.5h478.1zM939.9 627.2H81.8c-5.4 0-9.9-4.4-9.9-9.9V-6c0-5.4 4.4-9.9 9.9-9.9h858.1c5.4 0 9.9 4.4 9.9 9.9V617.3c0 5.5-4.4 9.9-9.9 9.9zM170.4 627.2c-54.3 0-98.4-44.1-98.4-98.4v-446.2c0-12.8 2.5-25.1 7-36.3 7.7-2 15.8-3.1 24.2-3.1h681c54.3 0 98.4 44.1 98.4 98.4V587.8c0 12.8-2.5 25.1-7 36.3-7.7 2-15.8 3.1-24.2 3.1h-681zM784.2 43.1c54.3 0 98.4 44.1 98.4 98.4V572H222c-54.3 0-98.4-44.1-98.4-98.4v-430.5h660.6zM712.6 387.7c-37.1 0-67.2-30.1-67.2-67.2s30.1-67.2 67.2-67.2h170V387.7h-170z m6.2-106.7c-21.8 0-39.4 17.6-39.4 39.4s17.6 39.4 39.4 39.4c21.8 0 39.4-17.6 39.4-39.4S740.5 281 718.8 281z"  horiz-adv-x="1024" />

    
    <glyph glyph-name="baoguo" unicode="&#58918;" d="M748.5 832.1H281.6c-10.8 0-20.7-5.8-25.9-15.2L111.3 559.8h807.4L774.4 816.9c-5.2 9.4-15.2 15.2-25.9 15.2zM914.6-58h-799c-2.3 0-4.2 1.9-4.2 4.2V559.8h807.4v-613.6c0-2.3-1.9-4.2-4.2-4.2zM836 559.8H111.3v-538.2H770c36.4 0 65.9 29.5 65.9 65.9V559.8zM830.2 21.6H197.3V559.8H836v-532.5c0-3.1-2.6-5.7-5.8-5.7zM620.7 559.8H409.4l38.3 272.3h134.7zM598.1 370.3L521.8 406c-4.3 2-9.2 2-13.4 0L432 370.3c-10.5-4.9-22.6 2.8-22.6 14.4V559.8h211.2v-175.1c0.1-11.6-12-19.3-22.5-14.4z"  horiz-adv-x="1024" />

    
    <glyph glyph-name="gouwulan" unicode="&#58919;" d="M502.7 456l-45.6 45.6c-1.5 1.5-1.5 3.8 0 5.3L794.2 844.1c1.5 1.5 3.8 1.5 5.3 0l45.6-45.6c1.5-1.5 1.5-3.8 0-5.3L508 456c-1.5-1.5-3.8-1.5-5.3 0zM779.8 796.8L488.3 505.3c-6.7-6.7-10.1-15.3-10.4-24.1 0.7-0.8 1.2-1.7 2-2.5 14.1-14.1 36.9-14.1 50.9 0l291.5 291.5c6.7 6.7 10.1 15.3 10.4 24.1-0.7 0.8-1.2 1.7-2 2.5-14 14.1-36.8 14.1-50.9 0zM725.3-55.7h-421c-67.8 0-124 52.7-128.2 120.4l-22.3 356.4h721.9l-22.3-356.4c-4.2-67.7-60.3-120.4-128.1-120.4zM153.8 421.2l22.3-356.4c0.8-13 3.6-25.4 7.9-37 2.7-7.3 8.5-13.1 15.9-15.8 13.8-5.1 28.7-8 44.3-8h492.7c27.5 0 50.3 21.4 52 48.9l23 368.4H153.8zM788.9 52.8l23 368.4H202.4l22.3-356.4c0-0.6 0.1-1.2 0.1-1.8 2.4-31 27.4-56.3 58.4-58.6 3.1-0.2 6.3-0.4 9.5-0.4h444.1c27.6-0.1 50.4 21.3 52.1 48.8zM962.7 401.3H66.9c-4 0-7.2 3.2-7.2 7.2V533.2c0 4 3.2 7.2 7.2 7.2h895.7c4 0 7.2-3.2 7.2-7.2v-124.7c0.1-4-3.1-7.2-7.1-7.2zM900.3 540.4h-771c-38.4 0-69.5-31.1-69.5-69.5 0-4.6 0.5-9 1.3-13.4 6.2 32 34.4 56.2 68.2 56.2h771.1c33.8 0 62-24.2 68.2-56.2 0.8 4.3 1.3 8.8 1.3 13.4 0 38.3-31.2 69.5-69.6 69.5zM63.8 447.7c9.6-27 35.2-46.4 65.5-46.4h771.1c30.3 0 55.9 19.4 65.5 46.4H63.8zM393.1 121.9l-46.9-11c-1.5-0.4-3 0.6-3.3 2.1L300 296.2c-0.4 1.5 0.6 3 2.1 3.3l46.9 11c1.5 0.4 3-0.6 3.3-2.1l42.9-183.2c0.3-1.5-0.6-3-2.1-3.3zM621.2 121.9l46.9-11c1.5-0.4 3 0.6 3.3 2.1l42.9 183.2c0.4 1.5-0.6 3-2.1 3.3l-46.9 11c-1.5 0.4-3-0.6-3.3-2.1l-42.9-183.2c-0.3-1.5 0.7-3 2.1-3.3zM531.2 115.7H483c-1.5 0-2.8 1.2-2.8 2.8V306.6c0 1.5 1.2 2.8 2.8 2.8h48.2c1.5 0 2.8-1.2 2.8-2.8v-188.2c0-1.5-1.2-2.7-2.8-2.7z"  horiz-adv-x="1024" />

    
    <glyph glyph-name="hongbao" unicode="&#58920;" d="M836.7-64.3H181.4c-6.3 0-11.5 5.1-11.5 11.5V683.3c0 6.2 5 11.2 11.2 11.2h655.8c6.2 0 11.2-5 11.2-11.2v-736.1c0.1-6.3-5.1-11.5-11.4-11.5zM170 546.5c60.2-63.1 192.8-106.9 346.8-106.9 141.9 0 265.6 37.2 331.3 92.4v81.9c0 44.5-36.1 80.6-80.6 80.6h-517c-44.5 0-80.6-36.1-80.6-80.6v-67.4zM802.3 339.5H236c-3.1 0-5.6 2.5-5.6 5.6V826.6c0 3.1 2.5 5.6 5.6 5.6h566.3c3.1 0 5.6-2.5 5.6-5.6v-481.5c0-3.1-2.5-5.6-5.6-5.6zM705.5 792.8H238.8c-2.1 0-4.1-0.1-6.1-0.4-1.5-5-2.3-10.2-2.3-15.7v-381.8c0-30.6 24.8-55.4 55.4-55.4h466.7c2.1 0 4.1 0.1 6.1 0.4 1.5 5 2.3 10.2 2.3 15.7V737.4c0 30.6-24.8 55.4-55.4 55.4zM516.8 439.6c-154 0-286.6 43.8-346.8 106.9v-496.6c0-19.3 4.8-37.5 13.3-53.4 17.6-11 38.3-17.5 60.6-17.5h449.9c63 0 114.1 51.1 114.1 114.1V504.4c-70-39.6-174.3-64.8-291.1-64.8zM230.4 501.9v-507.4c0-5 0.4-9.9 1-14.8 4.1-0.5 8.2-0.8 12.4-0.8h449.9c63 0 114.1 51.1 114.1 114.1V504.4c-70-39.7-174.3-64.9-291-64.9-114.2 0.1-216.5 24.2-286.4 62.4zM484.8 547.2h-53c-6.9 0-12.4 5.6-12.4 12.4 0 6.9 5.6 12.4 12.4 12.4h53v21.8h-53c-6.9 0-12.4 5.6-12.4 12.4 0 6.9 5.6 12.4 12.4 12.4h41.6l-56.1 88.5c-9.9 15.6 1.3 35.9 19.7 35.9h1.2c8.8 0 16.9-5 20.9-12.8l24-47.5c12.4-25.5 16.8-34.2 25.8-52.3h1.7c9.7 18.1 14.1 27.8 25.8 52.3l23.7 47.4c4 7.9 12.1 12.9 20.9 12.9 18.4 0 29.6-20.4 19.7-35.9l-56.3-88.5h41.9c6.9 0 12.4-5.6 12.4-12.4 0-6.9-5.6-12.4-12.4-12.4h-52.7V572h52.7c6.9 0 12.4-5.6 12.4-12.4 0-6.9-5.6-12.4-12.4-12.4h-52.7V520c0-13.5-11-24.5-24.5-24.5s-24.5 11-24.5 24.5v27.2z"  horiz-adv-x="1024" />

    
    <glyph glyph-name="jinbi" unicode="&#58921;" d="M512 386.9m-444.4 0a444.4 444.4 0 1 1 888.8 0 444.4 444.4 0 1 1-888.8 0ZM887.7 436.9c0 132.5-58 251.3-150 332.7C671.6 808.8 594.4 831.3 512 831.3c-245.4 0-444.4-199-444.4-444.4 0-132.5 58-251.3 150-332.7 66.2-39.1 143.3-61.7 225.8-61.7 245.4 0 444.3 199 444.3 444.4zM568 793.5c-245.4 0-444.4-199-444.4-444.4 0-122.5 49.7-233.4 130-313.8 57.6-27.3 121.8-42.8 189.8-42.8 245.4 0 444.4 199 444.4 444.4 0 122.5-49.7 233.4-130 313.8-57.6 27.3-121.9 42.8-189.8 42.8zM704.4 279.6c0-28.6-4.9-44.6-25.2-54.3-15.4-7.3-35-9.4-60.2-10-11.8-0.3-22.1 7.7-25.4 19-0.4 1.5-0.9 3.1-1.4 4.6-5.3 16.7 7.3 33.6 24.8 33.6 8 0 14.3 0.1 17.1 0.3 7.8 0 9.7 1.9 9.7 8.2V381.7c0 14.3-11.6 25.9-25.9 25.9h-36.4c-14.3 0-25.9-11.6-25.9-25.9v-195.5c0-14.3-11.6-25.9-25.9-25.9H521c-14.3 0-25.9 11.6-25.9 25.9V381.7c0 14.3-11.6 25.9-25.9 25.9h-33c-14.3 0-25.9-11.6-25.9-25.9v-141.6c0-14.3-11.6-25.9-25.9-25.9h-7.3c-14.3 0-25.9 11.6-25.9 25.9V438c0 14.3 11.6 25.9 25.9 25.9h92.2c14.3 0 25.9 11.6 25.9 25.9v10.9c0 14.8-12.4 26.6-27.2 25.9-38.8-1.7-77.5-2.7-114.6-3-12.1-0.1-22.9 8.3-25.4 20.1 0 0.2-0.1 0.4-0.1 0.6-3.4 16.1 8.3 31.4 24.8 31.8 118 2.7 245.9 10.6 338.3 22.8 11.6 1.5 22.7-4.9 27.2-15.7l1.1-2.6c6.6-15.8-3.4-33.6-20.4-35.8-36.9-4.9-77.2-8.7-119.3-11.9-13.5-1-23.9-12.3-23.9-25.9v-17.3c0-14.3 11.6-25.9 25.9-25.9h97c14.3 0 25.9-11.6 25.9-25.9v-158.3z"  horiz-adv-x="1024" />

    
    <glyph glyph-name="ico" unicode="&#58880;" d="M774.59911111 828.30222222c-2.61688889-0.34133333-5.34755555-0.11377778-7.96444444-0.11377777-43.23555555 0-86.47111111 0.11377778-129.70666667-0.11377778-12.51555555 0-24.91733333-1.59288889-36.864-5.80266667-21.16266667-7.39555555-33.90577778-22.18666667-39.13955555-43.69066667-1.93422222-7.96444445-2.73066667-16.04266667-2.73066667-24.23466666 0-76.45866667-0.11377778-152.80355555 0.11377777-229.26222222 0-15.70133333 1.024-31.40266667 7.05422223-46.42133334 7.85066667-19.456 22.41422222-30.94755555 42.43911111-36.06755556 7.168-1.82044445 14.56355555-2.50311111 21.95911111-2.5031111h248.03555555c9.44355555 0 18.88711111 0.79644445 28.2168889 2.61688888 27.76177778 5.12 45.96622222 23.552 51.08622222 51.2 0.45511111 2.50311111-0.45511111 5.91644445 3.29955555 7.05422222v263.96444445c-0.45511111 0.45511111-0.56888889 1.024-0.56888889 1.70666667-1.70666667 5.46133333-1.93422222 11.15022222-3.75466666 16.72533333-8.07822222 23.89333333-24.68977778 38.00177778-48.69688889 44.14577778-7.28177778 1.82044445-14.56355555 2.73066667-22.18666667 2.38933333-1.47911111-0.11377778-3.41333333-1.13777778-4.43733333 1.024h-101.26222223c-0.45511111-2.95822222-3.072-2.38933333-4.89244444-2.61688889z m112.29866667-46.30755555c4.55111111 0 9.216-1.024 13.53955555-2.38933334 7.85066667-2.50311111 12.17422222-8.64711111 12.17422222-17.18044444 0-85.10577778 0.11377778-170.21155555-0.11377777-255.31733334 0-12.74311111-9.78488889-20.48-24.00711111-20.59377777-43.46311111-0.34133333-86.81244445-0.11377778-130.27555556-0.11377778h-128.56888889c-5.12 0-9.78488889 1.47911111-14.44977777 3.072-9.67111111 3.52711111-10.92266667 11.94666667-11.03644445 20.36622222-0.22755555 42.66666667-0.11377778 85.33333333-0.11377778 128V757.87377778c0 7.39555555 1.70666667 14.22222222 7.85066667 19.34222222 5.23377778 4.32355555 11.71911111 4.89244445 17.74933333 4.89244445 85.78844445 0.11377778 171.57688889 0 257.25155556-0.11377778zM773.68888889 830.00888889c-44.94222222-0.11377778-89.88444445-0.11377778-134.71288889-0.11377778-10.69511111 0-21.16266667-1.13777778-31.51644445-3.52711111-13.19822222-3.072-25.14488889-8.76088889-34.13333333-19.00088889-12.06044445-13.76711111-16.83911111-30.60622222-16.83911111-48.46933333-0.22755555-79.18933333-0.22755555-158.49244445 0-237.68177778 0-10.35377778 0.79644445-20.82133333 3.18577778-30.94755555 3.18577778-13.312 8.64711111-25.6 19.00088889-34.70222223 13.312-11.71911111 29.46844445-17.06666667 47.21777777-17.06666667 84.30933333-0.11377778 168.73244445-0.11377778 253.04177778 0 10.58133333 0 21.27644445 0.56888889 31.51644445 3.41333334 21.61777778 6.144 38.22933333 18.09066667 45.51111111 40.73244444 1.93422222 6.03022222 2.048 12.40177778 4.32355556 18.31822222-3.64088889-1.13777778-2.84444445-4.55111111-3.29955556-7.05422222-5.12-27.76177778-23.32444445-46.08-51.08622222-51.2-9.32977778-1.70666667-18.77333333-2.61688889-28.21688889-2.61688888h-248.03555556c-7.39555555 0-14.79111111 0.68266667-21.95911111 2.5031111-19.91111111 5.12-34.58844445 16.61155555-42.43911111 36.06755556-6.03022222 14.90488889-7.05422222 30.72-7.05422222 46.42133334-0.22755555 76.45866667-0.11377778 152.80355555-0.11377778 229.26222222 0 8.192 0.79644445 16.27022222 2.73066667 24.23466666 5.23377778 21.504 17.97688889 36.29511111 39.13955555 43.69066667 11.94666667 4.20977778 24.34844445 5.68888889 36.864 5.80266667 43.23555555 0.22755555 86.47111111 0.11377778 129.70666667 0.11377778 2.61688889 0 5.34755555-0.22755555 7.96444444 0.11377777 1.93422222 0.22755555 4.43733333-0.22755555 4.77866667 2.73066667-1.36533333-2.38933333-3.64088889-1.024-5.57511111-1.024zM66.67377778 499.712c2.27555555-14.22222222 6.25777778-27.76177778 16.27022222-38.68444445 13.08444445-14.44977778 30.15111111-20.48 48.92444445-20.59377777 85.44711111-0.34133333 170.89422222-0.34133333 256.4551111 0 10.69511111 0 21.504 1.13777778 31.97155556 4.43733333 27.87555555 8.76088889 44.48711111 31.06133333 44.48711111 60.416 0 84.19555555 0 168.27733333 0.11377778 252.47288889 0 7.28177778-0.91022222 14.336-2.73066667 21.39022222-6.59911111 25.48622222-27.87555555 44.48711111-54.04444444 48.128-4.66488889 0.68266667-9.32977778 1.25155555-14.10844444 1.25155556-2.27555555 0-5.12-0.68266667-5.91644445 2.73066667h-101.26222222c-1.47911111-2.38933333-3.75466667-1.024-5.57511111-1.024-46.76266667-0.11377778-93.52533333 0.22755555-140.288-0.22755556-16.83911111-0.11377778-33.22311111-2.95822222-48.01422222-12.17422222-14.22222222-8.87466667-22.528-21.73155555-26.96533334-37.54666667-0.91022222-3.072-0.22755555-6.48533333-2.16177778-9.32977778v-265.10222222c3.29955555-1.024 2.50311111-3.98222222 2.84444445-6.144z m44.94222222 262.82666667c0 9.216 7.05422222 16.61155555 16.49777778 18.54577778 5.00622222 1.024 10.01244445 1.13777778 15.01866667 1.13777777h249.17333333c4.89244445 0 9.55733333-0.91022222 14.10844444-2.27555555 8.53333333-2.73066667 12.288-7.85066667 12.288-16.61155556v-256.56888889c0-9.32977778-4.32355555-15.13244445-13.19822222-18.09066667-4.55111111-1.47911111-9.216-2.38933333-14.10844445-2.27555555-42.32533333 0.11377778-84.53688889 0.11377778-126.86222222 0.11377778-42.89422222 0-85.67466667-0.11377778-128.56888888 0.11377777-7.168 0-14.336 1.024-19.68355556 6.94044445-3.072 3.41333333-4.66488889 7.168-4.66488889 11.49155555-0.11377778 85.67466667-0.11377778 171.57688889 0 257.47911112zM64.85333333 502.89777778c0.11377778-10.12622222 2.95822222-19.68355555 7.28177778-28.55822223 11.83288889-24.34844445 32.88177778-35.27111111 58.70933334-35.49866666 84.76444445-0.68266667 169.52888889-0.22755555 254.17955555-0.22755556 10.58133333 0 21.16266667 0.91022222 31.51644445 3.41333334 30.83377778 7.62311111 49.60711111 30.03733333 49.83466666 61.89511111 0.56888889 83.968 0.22755555 167.936 0.22755556 251.904 0 5.57511111 0 11.15022222-1.024 16.72533333-3.41333333 18.432-12.17422222 33.45066667-27.53422222 44.37333334-12.51555555 8.87466667-26.73777778 12.51555555-41.984 12.97066666-2.61688889 0.11377778-5.57511111-1.36533333-7.85066667 1.024 0.79644445-3.41333333 3.75466667-2.73066667 5.91644444-2.73066666 4.77866667 0 9.44355555-0.68266667 14.10844445-1.25155556 26.16888889-3.64088889 47.44533333-22.64177778 54.04444444-48.128 1.82044445-7.05422222 2.73066667-14.10844445 2.73066667-21.39022222-0.11377778-84.19555555 0-168.27733333-0.11377778-252.47288889 0-29.24088889-16.61155555-51.54133333-44.48711111-60.416-10.46755555-3.29955555-21.27644445-4.43733333-31.97155556-4.43733333-85.44711111-0.22755555-170.89422222-0.34133333-256.45511111 0-18.77333333 0.11377778-35.72622222 6.144-48.92444444 20.59377777-10.01244445 11.03644445-13.99466667 24.46222222-16.27022223 38.68444445-0.34133333 2.16177778 0.45511111 5.23377778-2.95822222 5.91644444 1.47911111-0.11377778 1.024-1.47911111 1.024-2.38933333zM147.68355555-37.774222219999956c2.38933333 0.34133333 4.89244445 0.11377778 7.39555556 0.11377777h234.38222222c9.55733333 0 18.88711111 1.13777778 28.10311112 3.52711112 29.01333333 7.50933333 47.104 30.60622222 47.21777777 60.52977778 0.11377778 28.78577778 0 57.68533333 0 86.4711111v168.39111112c0 36.75022222-24.34844445 63.94311111-60.98488889 67.92533333-12.97066667 1.36533333-26.05511111 1.93422222-39.13955555 2.27555555-39.25333333 0.79644445-78.50666667-0.56888889-117.64622223-1.4791111-37.54666667-0.91022222-75.09333333-0.22755555-112.52622222-0.79644445-13.08444445-0.22755555-25.71377778-3.072-37.20533333-9.216-15.47377778-8.192-24.91733333-21.04888889-29.24088889-38.00177778-0.79644445-3.18577778-0.11377778-7.39555555-4.20977778-9.10222222v-266.24c2.27555555-6.25777778 2.50311111-12.97066667 4.43733334-19.456 6.71288889-23.552 22.07288889-37.888 45.28355555-44.25955555 7.39555555-2.048 15.01866667-2.61688889 22.64177778-2.38933334 1.59288889 0 3.75466667 1.25155555 5.00622222-1.024h2.27555556c0.22755555 2.61688889 2.38933333 2.50311111 4.20977777 2.73066667z m-12.97066666 46.19377777c-13.88088889 0-23.552 7.50933333-23.43822222 23.32444445 0.45511111 83.39911111 0.22755555 166.79822222 0.11377778 250.31111111 0 13.42577778 7.96444445 20.59377778 20.82133333 21.04888889 84.87822222 2.73066667 169.64266667 0.56888889 254.52088889 0.91022222 7.28177778 0 15.24622222 0.45511111 22.30044444-3.41333333 6.144-3.41333333 9.67111111-8.192 9.67111111-15.58755556-0.11377778-42.66666667 0-85.33333333 0-128 0-42.32533333-0.22755555-84.53688889 0.11377778-126.86222222 0.11377778-13.76711111-8.87466667-20.02488889-21.27644445-21.95911111-9.78488889-1.47911111-19.34222222 0-29.01333333 0.11377778-77.93777778 0.22755555-155.87555555 0.11377778-233.81333333 0.11377777zM149.61777778-39.48088888999996c77.14133333 0.11377778 154.39644445 0.11377778 231.53777777 0 10.69511111 0 21.27644445 0.22755555 31.85777778 2.38933334 14.22222222 2.84444445 27.07911111 8.87466667 36.97777778 19.456 11.03644445 11.83288889 16.49777778 26.624 16.49777778 42.78044444 0.22755555 84.53688889 0.11377778 169.18755555 0.11377778 253.72444444 0 7.168-0.45511111 14.10844445-2.27555556 21.04888889-6.03022222 22.64177778-19.68355555 38.34311111-41.75644444 46.99022223-15.13244445 5.91644445-31.06133333 5.68888889-46.64888889 6.03022222-26.28266667 0.56888889-52.56533333 1.024-78.848-0.56888889-21.61777778-1.36533333-43.46311111-0.34133333-65.19466667-1.13777778-31.40266667-1.024-62.91911111-0.34133333-94.43555556-0.22755555-7.28177778 0-14.44977778-0.68266667-21.61777777-2.27555556-20.93511111-4.77866667-36.97777778-15.70133333-46.19377778-35.61244444-2.95822222-6.48533333-3.18577778-13.65333333-5.91644445-20.13866667 4.20977778 1.70666667 3.41333333 5.91644445 4.20977778 9.10222222 4.32355555 16.95288889 13.88088889 29.80977778 29.24088889 38.00177778 11.60533333 6.144 24.12088889 8.98844445 37.20533333 9.216 37.54666667 0.56888889 74.97955555-0.11377778 112.52622223 0.79644444 39.25333333 0.91022222 78.39288889 2.27555555 117.64622222 1.47911111 13.08444445-0.22755555 26.16888889-0.79644445 39.13955555-2.27555555 36.63644445-3.98222222 60.87111111-31.17511111 60.9848889-67.92533333v-168.39111112c0-28.78577778 0.11377778-57.68533333 0-86.47111111-0.22755555-30.03733333-18.20444445-53.02044445-47.21777778-60.52977777-9.216-2.38933333-18.54577778-3.52711111-28.10311112-3.52711112h-234.38222222c-2.50311111 0-4.89244445 0.11377778-7.39555555-0.11377778-1.82044445-0.22755555-3.98222222 0-4.20977778-2.73066666 1.70666667 2.16177778 4.20977778 0.91022222 6.25777778 0.91022222zM92.84266667 817.60711111c14.79111111 9.10222222 31.17511111 12.06044445 48.01422222 12.17422222 46.76266667 0.45511111 93.52533333 0.11377778 140.288 0.22755556 1.82044445 0 4.096-1.36533333 5.57511111 1.024-1.93422222-1.13777778-4.096-0.56888889-6.144-0.56888889-50.97244445-0.34133333-101.94488889 0.91022222-152.91733333-0.68266667-21.504-0.68266667-39.70844445-9.216-52.90666667-26.85155555-7.168-9.55733333-10.35377778-20.48-11.03644445-32.19911111 2.048 2.73066667 1.36533333 6.144 2.16177778 9.32977778 4.55111111 15.81511111 12.74311111 28.672 26.96533334 37.54666666zM885.19111111 830.00888889c7.50933333 0.34133333 14.90488889-0.56888889 22.18666667-2.38933334 23.89333333-6.144 40.61866667-20.25244445 48.69688889-44.14577777 1.82044445-5.46133333 2.048-11.264 3.75466666-16.72533333v0.4551111c0.45511111 31.97155555-27.76177778 60.52977778-59.96088888 62.91911112-6.37155555 0.45511111-12.74311111-0.56888889-19.11466667 1.024 0.91022222-2.38933333 2.95822222-1.25155555 4.43733333-1.13777778zM136.07822222-39.48088888999996c-7.62311111-0.22755555-15.24622222 0.34133333-22.64177777 2.38933334-23.21066667 6.37155555-38.57066667 20.70755555-45.28355556 44.25955555-1.82044445 6.48533333-2.048 13.19822222-4.43733334 19.456 1.25155555-6.03022222 0.91022222-12.288 2.38933334-18.31822222 6.25777778-25.94133333 29.01333333-46.19377778 55.296-47.78666667 6.59911111-0.45511111 13.19822222 0.68266667 19.68355556-0.91022222-1.25155555 2.16177778-3.41333333 1.024-5.00622223 0.91022222zM621.68177778 207.41688889c-13.99466667-0.22755555-23.21066667-9.44355555-23.21066667-22.75555556V-10.808888890000048c0-13.99466667 9.67111111-22.86933333 23.66577778-22.64177778 14.67733333 0.22755555 23.89333333 7.85066667 24.00711111 22.41422222 0.22755555 65.30844445 0.11377778 130.73066667 0 196.03911112 0 13.65333333-9.55733333 22.64177778-24.46222222 22.41422222zM909.53955555 207.18933332999995c-11.264 2.048-26.51022222-5.57511111-26.51022222-20.70755555-0.22755555-33.22311111 0-66.33244445 0-99.55555556v-98.98666667c0-1.82044445-0.11377778-3.86844445 0.45511112-5.5751111 3.75466667-10.69511111 16.384-18.432 26.73777777-15.9288889 12.97066667 3.072 20.36622222 8.192 20.48 24.34844445 0.22755555 63.14666667 0.11377778 126.29333333 0.11377778 189.44-0.11377778 16.384-5.23377778 24.00711111-21.27644445 26.96533333zM804.06755555 139.03644444999998c-2.95822222 10.69511111-14.79111111 19.11466667-25.14488888 17.18044444-14.10844445-2.73066667-22.07288889-7.50933333-22.18666667-23.77955556-0.34133333-46.76266667-0.11377778-93.63911111-0.11377778-140.40177778 0-15.70133333 6.48533333-22.75555555 19.91111111-25.25866666 12.62933333-2.38933333 27.76177778 5.12 27.87555556 21.73155556v72.24888888 73.38666667c0 1.47911111 0 3.29955555-0.34133334 4.89244445zM772.55111111 346.68088889c-9.89866667-2.16177778-15.92888889-11.60533333-15.92888889-22.528V223.57333332999997c0-14.90488889 4.55111111-23.89333333 20.59377778-26.96533333 11.71911111-2.16177778 27.30666667 5.91644445 27.19288889 21.04888889-0.11377778 17.97688889 0 35.95377778 0 54.04444444 0 17.408-0.22755555 34.816 0 52.33777778 0.34133333 21.61777778-16.61155555 25.94133333-31.85777778 22.64177778zM637.15555555 343.72266666999997c-5.57511111 3.86844445-11.49155555 3.75466667-17.52177777 3.75466666-11.94666667 0-21.04888889-8.98844445-21.04888889-20.82133333v-29.58222222c0-10.24-0.11377778-20.48 0-30.72 0.11377778-5.23377778 1.47911111-9.89866667 5.57511111-13.99466667 5.91644445-5.91644445 12.74311111-7.62311111 20.70755555-7.39555556 11.264 0.34133333 21.39022222 10.12622222 21.39022223 21.27644445 0.11377778 20.13866667 0.22755555 40.16355555-0.11377778 60.30222222 0 6.94044445-2.73066667 12.85688889-8.98844445 17.18044445zM928.768 334.05155555c-2.50311111 7.05422222-11.15022222 13.42577778-20.36622222 13.65333334-16.27022222 0.56888889-26.85155555-8.98844445-25.6-25.94133334 0.56888889-7.96444445 0.11377778-15.92888889 0.11377777-23.89333333v-28.44444444c0-1.70666667 0-3.41333333 0.45511112-5.00622223 3.64088889-11.71911111 14.67733333-17.63555555 27.19288888-15.92888888 12.51555555 1.82044445 19.79733333 9.55733333 20.0248889 22.41422222 0.34133333 17.97688889 0.11377778 36.06755555 0.11377777 54.04444444 0 3.29955555-0.91022222 6.25777778-1.93422222 9.10222222zM329.95555555 673.22311111c-2.16177778 8.30577778-8.98844445 14.44977778-17.52177777 15.58755556-1.47911111 0.22755555-3.072 0.45511111-4.55111111 0.45511111-0.68266667 0-1.70666667-0.22755555-1.93422222 0.91022222h-32.768c-0.45511111-0.79644445-1.25155555-0.34133333-1.82044445-0.34133333-15.13244445 0-30.26488889 0.11377778-45.39733333-0.11377778-5.46133333 0-10.80888889-1.024-15.58755556-3.98222222-4.66488889-2.84444445-7.28177778-7.05422222-8.76088889-12.17422222-0.22755555-1.024 0-2.16177778-0.68266667-2.95822223v-85.90222222c1.13777778-0.22755555 0.79644445-1.25155555 0.91022223-1.93422222 0.79644445-4.66488889 2.048-8.98844445 5.23377777-12.51555556 4.20977778-4.66488889 9.78488889-6.59911111 15.81511112-6.71288889 27.648-0.11377778 55.40977778-0.11377778 83.05777778 0 3.52711111 0 6.94044445 0.34133333 10.35377777 1.47911112 8.98844445 2.84444445 14.44977778 10.12622222 14.44977778 19.56977777v81.80622223c0.11377778 2.27555555-0.22755555 4.55111111-0.79644445 6.82666666zM823.18222222 681.984c-2.16177778 8.30577778-8.98844445 14.44977778-17.52177777 15.58755555-1.47911111 0.22755555-3.072 0.45511111-4.55111112 0.45511112-0.68266667 0-1.70666667-0.22755555-1.93422222 0.91022222h-32.768c-0.45511111-0.79644445-1.25155555-0.34133333-1.82044444-0.34133334-15.13244445 0-30.26488889 0.11377778-45.39733334-0.11377777-5.46133333 0-10.80888889-1.024-15.58755555-3.98222223-4.66488889-2.84444445-7.28177778-7.05422222-8.76088889-12.17422222-0.22755555-1.024 0-2.16177778-0.68266667-2.95822222v-85.90222222c1.13777778-0.22755555 0.79644445-1.25155555 0.91022223-1.93422222 0.79644445-4.66488889 2.048-8.98844445 5.23377777-12.51555556 4.20977778-4.66488889 9.78488889-6.59911111 15.81511111-6.71288889 27.648-0.11377778 55.40977778-0.11377778 83.05777778 0 3.52711111 0 6.94044445 0.34133333 10.35377778 1.47911111 8.98844445 2.84444445 14.44977778 10.12622222 14.44977778 19.56977778v81.80622222c0.22755555 2.27555555-0.22755555 4.66488889-0.79644445 6.82666667zM329.27288889 196.72177778000002c-2.16177778 8.30577778-8.98844445 14.44977778-17.52177778 15.58755555-1.47911111 0.22755555-3.072 0.45511111-4.55111111 0.45511112-0.68266667 0-1.70666667-0.22755555-1.93422222 0.91022222h-32.768c-0.45511111-0.79644445-1.25155555-0.34133333-1.82044445-0.34133334-15.13244445 0-30.26488889 0.11377778-45.39733333-0.11377778-5.46133333 0-10.80888889-1.024-15.58755555-3.98222222-4.66488889-2.84444445-7.28177778-7.05422222-8.7608889-12.17422222-0.22755555-1.024 0-2.16177778-0.68266666-2.95822222v-85.90222222c1.13777778-0.22755555 0.79644445-1.25155555 0.91022222-1.93422222 0.79644445-4.66488889 2.048-8.98844445 5.23377778-12.51555556 4.20977778-4.66488889 9.78488889-6.59911111 15.81511111-6.71288889 27.648-0.11377778 55.40977778-0.11377778 83.05777778 0 3.52711111 0 6.94044445 0.34133333 10.35377777 1.47911111 8.98844445 2.84444445 14.44977778 10.12622222 14.44977778 19.56977778v81.80622222c0.11377778 2.27555555-0.22755555 4.55111111-0.79644444 6.82666667z"  horiz-adv-x="1024" />

    
    <glyph glyph-name="logo1" unicode="&#58891;" d="M463.4 520.4h246.1c87.1 0 159.2-62.7 165.1-148.4v-185.2c0-90.8-74.7-165.5-165.5-165.5H314.8c-90.7 0-165.5 74.6-165.5 165.5V580.9c0 91.1 74.4 165.5 165.5 165.5h394.1c81.4 0 149.5-59.5 163-137.1H337.1c-17.9 0-32.5-14.1-33.6-31.5v-387.6c1.4-17.9 15.6-31.7 33.6-31.7h97.8V239H589v-80.6h97.8c18.6 0 33.6 15 33.6 33.7V371.7c0 18.6-15 33.6-33.6 33.6H589v-80.6H434.9V492.3c0.7 15.4 12.9 27.7 28.5 28.1"  horiz-adv-x="1024" />

    
    <glyph glyph-name="RectangleCopy" unicode="&#59043;" d="M517.632 343.850667c-108.714667 0-197.162667 85.546667-197.162667 190.72 0 38.314667 11.690667 75.306667 33.877334 106.922666C391.04 693.973333 452.138667 725.333333 517.632 725.333333c65.408 0 126.464-31.274667 163.2-83.712 7.765333-11.093333 14.250667-22.869333 19.413333-35.072a21.333333 21.333333 0 1 0-39.338666-16.64 147.285333 147.285333 0 0 1-15.018667 27.221334C617.130667 658.176 569.173333 682.666667 517.632 682.666667c-51.626667 0-99.584-24.533333-128.426667-65.621334a143.445333 143.445333 0 0 1-26.069333-82.432c0-81.664 69.290667-148.096 154.453333-148.096 63.402667 0 119.722667 36.437333 143.36 92.8a21.333333 21.333333 0 0 0 39.338667-16.512c-30.378667-72.277333-102.016-118.954667-182.656-118.954666M303.829333 268.544c-49.92 0-90.453333-41.088-90.453333-91.605333C213.333333 126.421333 253.866667 85.333333 303.786667 85.333333h416.341333C770.133333 85.333333 810.666667 126.421333 810.666667 176.938667c0 50.517333-40.533333 91.605333-90.453334 91.605333H303.786667zM720.213333 42.666667H303.829333C230.442667 42.666667 170.709333 102.912 170.709333 176.938667 170.666667 250.965333 230.4 311.210667 303.786667 311.210667h416.341333C793.6 311.210667 853.333333 250.965333 853.333333 176.938667 853.333333 102.912 793.6 42.666667 720.213333 42.666667z"  horiz-adv-x="1024" />

    
    <glyph glyph-name="logo" unicode="&#59036;" d="M575.711305 343.7436l-70.364715-117.274525s204.697353-6.396792 326.236406 89.555092c83.1583 66.100187 115.142261 127.935846 102.348676 194.036032-14.925849 81.026035-127.935846 162.052071-272.929804 119.40679s-277.194332-125.803581-356.088103-283.591125 12.793585-275.062068 83.1583-298.516973c70.364715-23.454905 230.284522-57.57113 356.088103 44.777546s147.126222 189.771504 147.126222 189.771505-174.845656-189.771504-360.352631-168.448864c-183.374712 21.322641-149.258486 149.258486-121.539053 202.565089 27.719433 53.306602 142.861694 185.506976 296.384708 202.565089s121.539053-78.893771 51.174339-125.803582C688.721302 341.611336 575.711305 343.7436 575.711305 343.7436zM390.204329 887.470944H383.807537c-17.058113-66.100187-46.90981-130.06811-83.1583-185.506976 53.306602 23.454905 110.877733 40.513018 170.581127 49.042074C720.705263 785.122267 1042.677141 701.963968 1076.793366 405.579259 1162.08393 780.857739 722.837527 934.380754 390.204329 887.470944zM168.448863-84.841482c-10.66132 38.380754-17.058113 76.761507-21.322641 117.274525C123.671317 301.098318 266.533011 544.176425 490.420741 661.45095 221.755466 597.483027 21.322641 362.933977 0 85.739645c66.100187-44.777546 123.671317-102.348676 168.448863-170.581127zM1087.454687 256.320772c-106.613205-176.97792-388.072065-328.36867-611.959795-289.987916-81.026035 12.793585-155.655279 44.777546-219.623201 87.422828 76.761507-130.06811 249.474899-196.168296 441.378667-179.110184 119.406789 12.793585 289.987916 93.81962 364.61716 164.184335-2.132264 72.496979 6.396792 144.993958 25.587169 217.490937z"  horiz-adv-x="1088" />

    
    <glyph glyph-name="icon-test" unicode="&#58936;" d="M544 672h-64v-288c0-8.832 3.584-16.832 9.376-22.656l192-191.968 45.248 45.248L544 397.248V672zM512 0C300.256 0 128 172.256 128 384S300.256 768 512 768s384-172.256 384-384-172.256-384-384-384m0 832C264.576 832 64 631.424 64 384s200.576-448 448-448 448 200.576 448 448S759.424 832 512 832"  horiz-adv-x="1024" />

    
    <glyph glyph-name="icon-test1" unicode="&#58940;" d="M192 448c0 141.152 114.848 256 256 256s256-114.848 256-256-114.848-256-256-256-256 114.848-256 256z m710.624-409.376l-206.88 206.88A318.784 318.784 0 0 1 768 448c0 176.736-143.264 320-320 320S128 624.736 128 448s143.264-320 320-320a318.784 318.784 0 0 1 202.496 72.256l206.88-206.88 45.248 45.248z"  horiz-adv-x="1024" />

    
    <glyph glyph-name="icon-test2" unicode="&#58967;" d="M212.16 446.432l161.696-138.048-47.072-216.448 186.08 110.336 186.144-110.272-47.2 216.384 161.568 138.08-205.824 23.68-94.72 197.792-94.72-197.824-205.92-23.68zM512 800.032c3.808 0 7.584-2.24 9.024-6.592l129.6-270.784 288.8-33.184c9.184 0 12.992-11.744 5.568-17.152L720 280l65.184-299.52a9.504 9.504 0 0 0-14.592-10.656L512 123.104l-258.592-153.28a9.536 9.536 0 0 0-14.592 10.624L304 280l-224.992 192.32a9.472 9.472 0 0 0 5.6 17.152l288.736 33.184 129.6 270.784A9.344 9.344 0 0 0 512 800z"  horiz-adv-x="1024" />

    
    <glyph glyph-name="icon-test3" unicode="&#58968;" d="M589.088 105.376L310.464 384l278.624 278.624 45.248-45.248L400.96 384l233.376-233.376z"  horiz-adv-x="1024" />

    


  </font>
</defs>
</svg>
